<?xml version="1.0" encoding="utf-8"?>
<!-- Generator: Adobe Illustrator 17.1.0, SVG Export Plug-In . SVG Version: 6.00 Build 0)  -->
<!DOCTYPE svg PUBLIC "-//W3C//DTD SVG 1.1//EN" "http://www.w3.org/Graphics/SVG/1.1/DTD/svg11.dtd">
<svg version="1.1" id="Layer_1" xmlns="http://www.w3.org/2000/svg" xmlns:xlink="http://www.w3.org/1999/xlink" x="0px" y="0px"
	 viewBox="0 0 100 100" enable-background="new 0 0 100 100" xml:space="preserve">
<g>
	<g>
		<g>
			<g>
				<path fill="#FFFFFF" d="M34.9,69.2c-10.4,0-12.3-6.6-12.7-9.4c-0.7-5.2,0.6-7.9,4.1-8.9c1-0.3,4.3-0.7,7.9-0.7
					c7.9,0,12.3,2,12.8,5.7c0.4,3.5-0.7,6.9-2.9,9.4C41.9,67.8,38.6,69.2,34.9,69.2z M34.3,52.2c-3.6,0-6.6,0.4-7.4,0.7
					c-1.7,0.5-3.4,1.4-2.7,6.7c0.6,4.9,4.4,7.6,10.7,7.6c3.1,0,5.9-1.1,7.7-3.2c1.8-2.1,2.7-4.9,2.4-7.8
					C44.6,52.6,37.4,52.2,34.3,52.2z"/>
			</g>
			<g>
				<path fill="#FFFFFF" d="M65.3,69.2c-3.7,0-7-1.4-9.3-3.9c-2.2-2.5-3.3-5.9-2.9-9.4c0.4-3.7,4.8-5.7,12.8-5.7
					c3.7,0,6.9,0.4,7.9,0.7c3.6,1,4.8,3.7,4.1,8.9C77.6,62.6,75.6,69.2,65.3,69.2z M65.9,52.2c-3.1,0-10.4,0.4-10.7,3.9
					c-0.3,2.9,0.6,5.8,2.4,7.8c1.9,2.1,4.6,3.2,7.7,3.2c6.2,0,10-2.7,10.7-7.6c0.7-5.2-1-6.2-2.7-6.7C72.5,52.7,69.4,52.2,65.9,52.2
					z"/>
			</g>
			<g>
				<path fill="#FFFFFF" d="M54.4,55.8c-0.2,0-0.3,0-0.5-0.1c-3.7-2-7.8,0-7.8,0c-0.5,0.2-1.1,0-1.4-0.5c-0.2-0.5,0-1.1,0.5-1.4
					c0.2-0.1,5.1-2.5,9.7,0c0.5,0.3,0.7,0.9,0.4,1.4C55.1,55.6,54.8,55.8,54.4,55.8z"/>
			</g>
		</g>
		<g>
			<path fill="#FFFFFF" d="M50,74.9c-4.8,0-6.1-2.9-6.1-4.4c0-0.6,0.5-1,1-1c0.6,0,1,0.4,1,1c0,0.3,0.2,2.4,4.1,2.4
				c3.9,0,4.1-2.1,4.1-2.4c0-0.6,0.5-1,1-1c0.6,0,1,0.5,1,1C56.1,72,54.8,74.9,50,74.9z"/>
		</g>
		<g>
			<path fill="#FFFFFF" d="M56.1,83.4H43.9c-0.6,0-1-0.5-1-1c0-0.6,0.5-1,1-1h12.2c0.6,0,1,0.5,1,1C57.1,82.9,56.7,83.4,56.1,83.4z"
				/>
		</g>
		<g>
			<path fill="#FFFFFF" d="M52,87.5H48c-0.6,0-1-0.5-1-1c0-0.6,0.5-1,1-1H52c0.6,0,1,0.5,1,1C53.1,87,52.6,87.5,52,87.5z"/>
		</g>
		<g>
			<path fill="#FFFFFF" d="M78.5,38.6c-0.3,0-0.5-0.1-0.7-0.3c-0.1-0.1-8.2-7.8-27.8-7.8c-19.6,0-27.7,7.8-27.8,7.8
				c-0.3,0.3-0.7,0.4-1.1,0.2c-0.4-0.2-0.6-0.5-0.6-0.9V25.4c0-0.3,0-6.4,3.7-12.7C30.3,2.2,41.6,0,50,0c8.4,0,19.7,2.2,25.8,12.7
				c3.7,6.3,3.7,12.5,3.7,12.7v12.2c0,0.4-0.2,0.8-0.6,0.9C78.7,38.6,78.6,38.6,78.5,38.6z M50,2C38.6,2,30.5,5.9,26,13.7
				c-3.4,5.8-3.5,11.7-3.5,11.8v10.1c3.4-2.4,11.9-7,27.5-7c15.5,0,24.1,4.6,27.5,7V25.4c0-0.1-0.1-6-3.5-11.8C69.5,5.9,61.4,2,50,2
				z"/>
		</g>
		<g>
			<path fill="#FFFFFF" d="M80.8,43c-0.1,0-0.2,0-0.3-0.1c-0.1,0-13.3-4.4-30.5-4.4s-30.4,4.3-30.5,4.4c-0.4,0.1-0.9,0-1.2-0.3
				c-0.3-0.4-0.3-0.9-0.1-1.2l2.5-4.4l1.9,1.1l-1.2,2c4.8-1.3,15.5-3.7,28.5-3.7c13,0,23.7,2.4,28.5,3.7l-1.2-2l1.9-1.1l2.5,4.4
				c0.2,0.4,0.2,0.9-0.1,1.2C81.5,42.8,81.2,43,80.8,43z"/>
		</g>
		<g>
			<circle fill="#FFFFFF" cx="34.7" cy="56.9" r="3.1"/>
		</g>
		<g>
			<circle fill="#FFFFFF" cx="65.3" cy="56.9" r="3.1"/>
		</g>
		<g>
			<path fill="#FFFFFF" d="M41.9,37.6l22.4,8.6l-2-4.1h4.1l-2-4.1C64.2,38.1,54.1,37.6,41.9,37.6z"/>
		</g>
		<g>
			<path fill="#FFFFFF" d="M43.9,47.8c0,1.1-0.9,2-2,2H29.7c-1.1,0-2-0.9-2-2l0,0c0-1.1,0.9-2,2-2h12.2C43,45.8,43.9,46.7,43.9,47.8
				L43.9,47.8z"/>
		</g>
		<g>
			<path fill="#FFFFFF" d="M72.4,47.8c0,1.1-0.9,2-2,2H58.1c-1.1,0-2-0.9-2-2l0,0c0-1.1,0.9-2,2-2h12.2
				C71.5,45.8,72.4,46.7,72.4,47.8L72.4,47.8z"/>
		</g>
		<g>
			<path fill="#FFFFFF" d="M50,100c-12.3,0-18.1-8.1-23.2-15.2c-0.5-0.8-1.1-1.5-1.6-2.3c-4.6-6.3-4.7-19.9-4.7-20.5V41.7
				c0-0.6,0.5-1,1-1c0.6,0,1,0.5,1,1V62c0,0.1,0.1,13.5,4.3,19.3c0.6,0.8,1.1,1.5,1.7,2.3C33.5,90.7,38.7,98,50,98c0.6,0,1,0.5,1,1
				C51,99.5,50.6,100,50,100z"/>
		</g>
		<g>
			<path fill="#FFFFFF" d="M50,100c-0.6,0-1-0.5-1-1c0-0.6,0.5-1,1-1c11.3,0,16.5-7.3,21.5-14.3c0.6-0.8,1.1-1.6,1.7-2.3
				c4.2-5.8,4.3-19.1,4.3-19.3V41.7c0-0.6,0.5-1,1-1c0.6,0,1,0.5,1,1V62c0,0.6-0.1,14.1-4.7,20.5c-0.6,0.8-1.1,1.5-1.6,2.3
				C68.1,91.9,62.3,100,50,100z"/>
		</g>
		<g>
			<path fill="#FFFFFF" stroke="#231F20" stroke-width="2.0339" stroke-linecap="round" stroke-miterlimit="10" d="M50,99"/>
		</g>
		<g>
			<path fill="#FFFFFF" d="M78.5,63.1c-0.6,0-1-0.5-1-1V41.7c0-0.6,0.5-1,1-1c0.6,0,1,0.5,1,1V62C79.5,62.6,79,63.1,78.5,63.1z"/>
		</g>
		<g>
			<polygon fill="#FFFFFF" points="20.4,41.5 15.1,48.8 19.2,48.8 17.8,52.9 21.5,51.9 			"/>
		</g>
		<g>
			<polygon fill="#FFFFFF" points="79.6,41.5 84.9,48.8 80.8,48.8 82.2,52.9 78.5,51.9 			"/>
		</g>
		<g>
			<g>
				<path fill="#FFFFFF" d="M28.8,86.7c-0.4,0-0.8-0.4-0.8-0.8v-5.1c0-0.4,0.4-0.8,0.8-0.8c0.4,0,0.8,0.4,0.8,0.8v5.1
					C29.6,86.4,29.3,86.7,28.8,86.7z"/>
			</g>
			<g>
				<path fill="#FFFFFF" d="M32,90.8c-0.4,0-0.8-0.4-0.8-0.8v-5.1c0-0.4,0.4-0.8,0.8-0.8c0.4,0,0.8,0.4,0.8,0.8V90
					C32.8,90.4,32.5,90.8,32,90.8z"/>
			</g>
			<g>
				<path fill="#FFFFFF" d="M35.2,94.4c-0.4,0-0.8-0.4-0.8-0.8v-5.1c0-0.4,0.4-0.8,0.8-0.8c0.4,0,0.8,0.4,0.8,0.8v5.1
					C36,94,35.6,94.4,35.2,94.4z"/>
			</g>
			<g>
				<path fill="#FFFFFF" d="M38.4,96.9c-0.4,0-0.8-0.4-0.8-0.8V91c0-0.4,0.4-0.8,0.8-0.8c0.4,0,0.8,0.4,0.8,0.8v5.1
					C39.2,96.5,38.8,96.9,38.4,96.9z"/>
			</g>
			<g>
				<path fill="#FFFFFF" d="M41.6,98.4c-0.4,0-0.8-0.4-0.8-0.8v-5.1c0-0.4,0.4-0.8,0.8-0.8c0.4,0,0.8,0.4,0.8,0.8v5.1
					C42.4,98.1,42,98.4,41.6,98.4z"/>
			</g>
			<g>
				<path fill="#FFFFFF" d="M44.8,99.4c-0.4,0-0.8-0.4-0.8-0.8v-5.1c0-0.4,0.4-0.8,0.8-0.8c0.4,0,0.8,0.4,0.8,0.8v5.1
					C45.6,99.1,45.2,99.4,44.8,99.4z"/>
			</g>
			<g>
				<path fill="#FFFFFF" d="M48,99.4c-0.4,0-0.8-0.4-0.8-0.8v-5.1c0-0.4,0.4-0.8,0.8-0.8c0.4,0,0.8,0.4,0.8,0.8v5.1
					C48.8,99.1,48.4,99.4,48,99.4z"/>
			</g>
		</g>
		<g>
			<g>
				<path fill="#FFFFFF" d="M71.2,86.7c-0.4,0-0.8-0.4-0.8-0.8v-5.1c0-0.4,0.4-0.8,0.8-0.8s0.8,0.4,0.8,0.8v5.1
					C72,86.3,71.6,86.7,71.2,86.7z"/>
			</g>
			<g>
				<path fill="#FFFFFF" d="M68,90.7c-0.4,0-0.8-0.4-0.8-0.8v-5.1c0-0.4,0.4-0.8,0.8-0.8c0.4,0,0.8,0.4,0.8,0.8v5.1
					C68.8,90.4,68.4,90.7,68,90.7z"/>
			</g>
			<g>
				<path fill="#FFFFFF" d="M64.8,94.3c-0.4,0-0.8-0.4-0.8-0.8v-5.1c0-0.4,0.4-0.8,0.8-0.8s0.8,0.4,0.8,0.8v5.1
					C65.6,93.9,65.2,94.3,64.8,94.3z"/>
			</g>
			<g>
				<path fill="#FFFFFF" d="M61.6,96.8c-0.4,0-0.8-0.4-0.8-0.8v-5.1c0-0.4,0.4-0.8,0.8-0.8c0.4,0,0.8,0.4,0.8,0.8V96
					C62.4,96.5,62.1,96.8,61.6,96.8z"/>
			</g>
			<g>
				<path fill="#FFFFFF" d="M58.4,98.3c-0.4,0-0.8-0.4-0.8-0.8v-5.1c0-0.4,0.4-0.8,0.8-0.8c0.4,0,0.8,0.4,0.8,0.8v5.1
					C59.2,98,58.9,98.3,58.4,98.3z"/>
			</g>
			<g>
				<path fill="#FFFFFF" d="M55.2,99.4c-0.4,0-0.8-0.4-0.8-0.8v-5.1c0-0.4,0.4-0.8,0.8-0.8S56,93,56,93.5v5.1
					C56,99,55.7,99.4,55.2,99.4z"/>
			</g>
			<g>
				<path fill="#FFFFFF" d="M52,99.4c-0.4,0-0.8-0.4-0.8-0.8v-5.1c0-0.4,0.4-0.8,0.8-0.8c0.4,0,0.8,0.4,0.8,0.8v5.1
					C52.8,99,52.5,99.4,52,99.4z"/>
			</g>
		</g>
		<g>
			<path fill="#FFFFFF" d="M53.2,23.8h-7.3c-0.4,0-0.7-0.3-0.7-0.7c0-0.4,0.3-0.7,0.7-0.7h7.3c2.1,0,2.2-2,2.2-2.2v-5.8
				c0-2-1.8-2.2-2.2-2.2h-7.3c-0.4,0-0.7-0.3-0.7-0.7c0-0.4,0.3-0.7,0.7-0.7h7.3c0.1,0,0.9,0,1.8,0.4c1.2,0.6,1.9,1.7,1.9,3.2v5.8
				c0,0.1,0,0.9-0.4,1.8C55.8,23.2,54.7,23.8,53.2,23.8z"/>
		</g>
		<g>
			<path fill="#FFFFFF" d="M47.4,23.8c-0.4,0-0.7-0.3-0.7-0.7V11.5c0-0.4,0.3-0.7,0.7-0.7c0.4,0,0.7,0.3,0.7,0.7v11.6
				C48.1,23.5,47.8,23.8,47.4,23.8z"/>
		</g>
		<g>
			<path fill="#FFFFFF" d="M50.3,23.8c-0.4,0-0.7-0.3-0.7-0.7V11.5c0-0.4,0.3-0.7,0.7-0.7c0.4,0,0.7,0.3,0.7,0.7v11.6
				C51,23.5,50.7,23.8,50.3,23.8z"/>
		</g>
		<g>
			<path fill="#FFFFFF" d="M47.4,16.6h-1.5c-0.4,0-0.7-0.3-0.7-0.7c0-0.4,0.3-0.7,0.7-0.7h1.5c0.4,0,0.7,0.3,0.7,0.7
				C48.1,16.2,47.8,16.6,47.4,16.6z"/>
		</g>
		<g>
			<path fill="#FFFFFF" d="M50.3,15.1h-2.9c-0.4,0-0.7-0.3-0.7-0.7c0-0.4,0.3-0.7,0.7-0.7h2.9c0.4,0,0.7,0.3,0.7,0.7
				C51,14.8,50.7,15.1,50.3,15.1z"/>
		</g>
		<g>
			<path fill="#FFFFFF" d="M50.3,20.9h-2.9c-0.4,0-0.7-0.3-0.7-0.7c0-0.4,0.3-0.7,0.7-0.7h2.9c0.4,0,0.7,0.3,0.7,0.7
				C51,20.6,50.7,20.9,50.3,20.9z"/>
		</g>
		<g>
			<path fill="#FFFFFF" d="M47.4,19.5h-1.5c-0.4,0-0.7-0.3-0.7-0.7c0-0.4,0.3-0.7,0.7-0.7h1.5c0.4,0,0.7,0.3,0.7,0.7
				C48.1,19.1,47.8,19.5,47.4,19.5z"/>
		</g>
		<g>
			<path fill="#FFFFFF" d="M50.3,16.6c-0.4,0-0.7-0.3-0.7-0.7c0-0.4,0.3-0.7,0.7-0.7c2.3,0,4.7-0.4,5.1-0.8c0-0.4,0.3-0.7,0.7-0.7
				c0.4,0,0.7,0.3,0.7,0.7C56.8,15.4,55.7,16.6,50.3,16.6z"/>
		</g>
		<g>
			<path fill="#FFFFFF" d="M56.1,20.9c-0.4,0-0.7-0.3-0.7-0.7c-0.4-0.4-2.8-0.8-5.1-0.8c-0.4,0-0.7-0.3-0.7-0.7
				c0-0.4,0.3-0.7,0.7-0.7c5.4,0,6.5,1.2,6.5,2.2C56.8,20.6,56.5,20.9,56.1,20.9z"/>
		</g>
		<g>
			<path fill="#FFFFFF" d="M46.7,79.4c-0.4,0-0.8-0.4-0.8-0.8v-1.9c0-0.4,0.4-0.8,0.8-0.8c0.4,0,0.8,0.4,0.8,0.8v1.9
				C47.5,79.1,47.1,79.4,46.7,79.4z"/>
		</g>
		<g>
			<path fill="#FFFFFF" d="M43.6,79.9c-0.4,0-0.8-0.4-0.8-0.8v-1.9c0-0.4,0.4-0.8,0.8-0.8s0.8,0.4,0.8,0.8v1.9
				C44.4,79.6,44.1,79.9,43.6,79.9z"/>
		</g>
		<g>
			<path fill="#FFFFFF" d="M40.6,80.5c-0.4,0-0.8-0.4-0.8-0.8v-1.9c0-0.4,0.4-0.8,0.8-0.8c0.4,0,0.8,0.4,0.8,0.8v1.9
				C41.4,80.1,41,80.5,40.6,80.5z"/>
		</g>
		<g>
			<path fill="#FFFFFF" d="M37.5,81.5c-0.4,0-0.8-0.4-0.8-0.8v-1.9c0-0.4,0.4-0.8,0.8-0.8c0.4,0,0.8,0.4,0.8,0.8v1.9
				C38.3,81.1,38,81.5,37.5,81.5z"/>
		</g>
		<g>
			<path fill="#FFFFFF" d="M53.2,79.4c-0.4,0-0.8-0.4-0.8-0.8v-1.9c0-0.4,0.4-0.8,0.8-0.8c0.4,0,0.8,0.4,0.8,0.8v1.9
				C54,79.1,53.6,79.4,53.2,79.4z"/>
		</g>
		<g>
			<path fill="#FFFFFF" d="M56.2,79.9c-0.4,0-0.8-0.4-0.8-0.8v-1.9c0-0.4,0.4-0.8,0.8-0.8c0.4,0,0.8,0.4,0.8,0.8v1.9
				C57,79.6,56.7,79.9,56.2,79.9z"/>
		</g>
		<g>
			<path fill="#FFFFFF" d="M59.3,80.5c-0.4,0-0.8-0.4-0.8-0.8v-1.9c0-0.4,0.4-0.8,0.8-0.8c0.4,0,0.8,0.4,0.8,0.8v1.9
				C60.1,80.1,59.7,80.5,59.3,80.5z"/>
		</g>
		<g>
			<path fill="#FFFFFF" d="M62.3,81.5c-0.4,0-0.8-0.4-0.8-0.8v-1.9c0-0.4,0.4-0.8,0.8-0.8c0.4,0,0.8,0.4,0.8,0.8v1.9
				C63.1,81.1,62.8,81.5,62.3,81.5z"/>
		</g>
	</g>
</g>
</svg>
