<?xml version="1.0" encoding="utf-8"?>
<!-- Generator: Adobe Illustrator 17.1.0, SVG Export Plug-In . SVG Version: 6.00 Build 0)  -->
<!DOCTYPE svg PUBLIC "-//W3C//DTD SVG 1.1//EN" "http://www.w3.org/Graphics/SVG/1.1/DTD/svg11.dtd">
<svg version="1.1" id="Layer_1" xmlns="http://www.w3.org/2000/svg" xmlns:xlink="http://www.w3.org/1999/xlink" x="0px" y="0px"
	 viewBox="0 0 50 50" enable-background="new 0 0 50 50" xml:space="preserve">
<circle fill="#666666" cx="25" cy="25" r="25"/>
<g>
	<path fill="#FFFFFF" d="M11.2,15.6c0,0-0.2,0.1-0.2,0c0-0.1,0.1-0.2,0.3-0.3c0.2-0.1,0.4-0.2,0.6-0.2c0.2,0,0.5-0.1,0.7-0.3
		c0.2-0.1,0.4-0.5,0.5-0.6c0.1-0.1,0.3-0.2,0.6-0.1c0.2,0,0.5-0.1,0.6-0.1s0.4,0.1,0.6-0.2c0.2-0.2,0,0.2,0.7-0.5
		c0,0,0.4-0.1,0.6-0.1c0,0,0-0.2,0.1-0.3c0.1-0.1,0.1-0.2,0.3-0.3c0.2-0.1,0.4-0.4,0.5-0.4c0.1,0,0.5-0.2,0.6-0.4
		c0.1-0.2,0.3-0.5,0.9-0.7c0.6-0.3,0.5-0.2,0.7-0.2c0.2,0,0.8,0,0.9,0.1c0.2,0.1,0.3,0.2,0.2,0.3c-0.1,0.1-0.1,0-0.2,0
		c-0.1,0-0.4-0.1-0.6,0.1c-0.2,0.2,0.2,0.1-0.1,0.3c-0.3,0.2-0.2,0.1-0.5,0.3c-0.3,0.2,0.1,0.3-0.4,0.3c0,0,0,0.1,0,0.1
		c-0.1,0.1,0.1,0.2,0,0.2c-0.1,0-0.3,0.1-0.3,0.2c0,0.1-0.1,0.1-0.1,0.1c0,0,0,0.3-0.1,0.3c0,0.1-0.1,0.2-0.2,0.2
		c-0.1,0,0,0.2-0.1,0.3c0,0.1-0.1,0.2-0.1,0.4c0.1,0.1,0,0.3,0.2,0.2c0.1-0.1,0.1-0.3,0.3-0.3c0.1,0,0.4-0.4,0.5-0.4
		c0.2-0.1,0.3-0.1,0.1,0.1c-0.2,0.2,0.1,0.1,0.2,0.1s0.1-0.1,0.3,0c0.2,0.1,0.4,0,0.5,0c0.1,0.1,0.4,0.1,0.5,0.3
		c0.2,0.2,0.1,0.1,0.4,0.1c0.1,0,0.1,0.3,0.2,0.4c0.1,0.2,0.2,0.2,0.3,0.4c0.1,0.2,0.2,0.2,0.3,0.2c0.1,0,0.1,0,0.1,0.3
		s0,0.2,0.2,0.3c0.2,0.1,0.4,0,0.6,0c0.2,0,0.4-0.2,0.5-0.2c0.1,0,0.1,0.2,0.1,0.2c0,0.1,0.2,0.1,0.3,0.3c0,0.2,0.2-0.1,0.3-0.1
		c0.1-0.1,0.2-0.1,0.3,0.1c0,0.1,0.1,0.1,0.1-0.2c0-0.2-0.1-0.4,0-0.4c0.2,0,0.2,0,0.2,0.2c0,0.1-0.1,0.2,0,0.2c0.1,0,0.2,0,0.2,0
		c0.1-0.1,0.1-0.2,0.2-0.3c0.1-0.1,0.1-0.1,0.4-0.1c0.2,0,0.4-0.4,0.8-0.5c0.3-0.2,0.2,0,0.3,0c0.1,0.1,0.1,0,0.4-0.1
		c0.2,0,0.4-0.1,0.5,0c0.1,0,0.6,0,0.8,0c0.3,0,0.3,0,0.6,0c0.3-0.1,0.6-0.3,0.8-0.3c0.2,0,0.7,0,0.8-0.1c0.1-0.1,0.2,0,0.1,0.1
		c-0.1,0.1-0.1,0.3-0.2,0.3c0,0,0,0.2,0,0.3c0,0.1,0,0.3,0,0.4c0,0.1-0.1,0.1-0.1,0.2c0,0.1,0.1,0.2,0.2,0.2c0.1,0,0.3-0.1,0.3,0
		c0.1,0.1,0.3,0,0.3,0.1c0,0.1,0.3,0,0.4,0c0.1-0.1,0.2-0.2,0.3-0.1c0.1,0,0.2,0,0.3,0.2c0,0.1,0.2,0.1,0.3,0.1c0.1,0,0.2,0,0.2-0.1
		c0-0.1,0.1-0.3,0.3-0.3c0.1,0,0.1,0,0.3,0c0.1,0,0.2,0,0.3-0.1c0.1-0.1,0.1,0,0.1,0c0,0,0.3-0.1,0.2,0.2c0,0.3-0.2,0.4-0.1,0.6
		c0.1,0.2,0.2,0.3,0.1,0.3c-0.1,0.1,0.1,0.2,0.1,0.3c0,0.1-0.2,0-0.3,0c-0.1,0-0.2,0-0.3,0.1c0,0,0,0.2,0.1,0.2
		c0.1,0.1,0.1-0.1,0.2-0.1c0.1,0,0.2,0,0.2,0.1c0,0.1,0.1,0.1,0.2,0.1c0.1,0,0.1,0.1,0,0.2c-0.1,0.1,0,0.2,0.1,0.3
		c0,0.1,0.2,0,0.4,0.2c0.1,0.2,0.2,0.2,0.3,0c0-0.2,0.1,0,0.1,0.1c0.1,0.1,0.2,0,0.2-0.1c0-0.1-0.3-0.2-0.1-0.4
		c0.1-0.2,0.1,0.1,0.2,0.1c0.1,0,0.1-0.1,0.4-0.1c0.3,0,0.3,0.1,0.3,0.1s0.1,0,0.1,0.1c0,0.1-0.1,0.2,0.1,0.2c0.1,0,0.2,0,0.1,0.2
		c-0.1,0.1,0,0.3-0.2,0.3s-0.4-0.1-0.5-0.1c-0.1,0-0.5,0.1-0.6,0c-0.1-0.1-0.3,0-0.3,0c-0.1-0.1-0.2,0-0.2,0c0-0.1-0.1,0.1-0.2,0
		c-0.1-0.1-0.2,0-0.4,0c-0.2,0-0.3,0.1-0.5,0c0,0-0.2,0.1-0.4,0c-0.2-0.1-0.1-0.1-0.2-0.1c-0.1,0-0.1-0.1-0.2-0.1
		c-0.1-0.1-0.1-0.2-0.2-0.2c-0.1,0-0.2-0.2-0.3,0c-0.1,0.1,0,0.3-0.1,0.3c0,0-0.1,0.1-0.1,0.2c0,0.1,0.1,0.1,0,0.3
		c0,0.1,0.1,0.2-0.2,0.1c-0.3-0.1-0.3-0.3-0.4-0.4c-0.1-0.1-0.2-0.3-0.3-0.3c-0.1-0.1-0.3-0.2-0.4-0.2c-0.2,0-0.3-0.1-0.4-0.1
		c-0.1,0-0.3-0.2-0.5-0.1c-0.2,0.1-0.2-0.3-0.3,0c-0.1,0.2-0.2-0.2-0.3-0.1c-0.1,0.1-0.3,0.3-0.4,0.6c-0.1,0.2-0.3,0.1-0.4,0.1
		c-0.1,0-0.2-0.2-0.3,0c0,0.2-0.2,0-0.2,0s-0.1,0.1-0.1,0.2c0,0.2-0.1-0.1-0.3-0.1s-0.1-0.2-0.5-0.1c-0.4,0.1-0.4,0.1-0.5,0.2
		c-0.1,0.1-0.1,0.2-0.1,0.3c-0.1,0.1,0,0.3-0.1,0.3c-0.1,0-0.2,0.1-0.2,0.2c-0.1,0-0.2,0.1-0.3,0.1c0,0,0,0.2-0.1,0.2
		c-0.1,0-0.1,0.2-0.1,0.2s-0.1,0-0.1,0c-0.1,0.1,0,0.2,0,0.2s-0.2,0-0.3-0.2c-0.1-0.2,0-0.2,0.1-0.2c0.1,0,0-0.1,0.2-0.2
		c0.1-0.1-0.1-0.2,0.1-0.2c0.2,0,0.1-0.1,0.2-0.2c0.1-0.1,0.1-0.2,0-0.3c-0.1-0.1-0.1-0.1-0.3,0c-0.2,0.1,0.1,0.2-0.2,0.2
		c-0.3,0-0.2-0.2-0.3-0.1c-0.1,0,0,0.2-0.1,0.3c0,0.1-0.1,0.1-0.1,0.2c-0.1,0.1,0.1,0.2-0.1,0.2c-0.2,0.1-0.3,0-0.3,0.1
		c-0.1,0.1-0.1,0.2-0.1,0c0.1-0.1-0.2,0,0-0.2c0.2-0.1,0-0.1,0-0.2c0-0.1,0-0.4-0.1-0.3c-0.1,0-0.1,0.1-0.1,0.3c0,0.1,0,0.3-0.1,0.4
		c-0.1,0.1-0.3,0-0.5,0.5c-0.2,0.4-0.4,0.9-0.6,1.1c-0.2,0.2,0,0.4-0.4,0.7c-0.4,0.4-0.3,0.5-0.3,0.6c0,0.1,0,0.1-0.2,0
		c-0.2,0-0.1-0.2-0.3-0.3c-0.2-0.1,0.1-0.5,0.2-0.7c0.1-0.2,0-0.2,0-0.3c0-0.1-0.2,0.1-0.3,0.1c-0.1,0-0.2,0-0.3,0
		c-0.1,0-0.2,0-0.1-0.2c0.1-0.1,0-0.2,0.1-0.3c0.1-0.1,0.3-0.3,0.2-0.4c-0.1-0.2-0.1-0.1,0-0.3s0.1-0.1,0-0.2
		c-0.1-0.1-0.1-0.2,0-0.3c0.1-0.1-0.1-0.2-0.2-0.2c-0.1-0.1,0-0.2-0.3-0.2c-0.4,0,0-0.2-0.2-0.2c-0.2,0-0.2,0.2-0.3,0
		c-0.1-0.2,0-0.1,0-0.2c0.1-0.1,0.1-0.2,0-0.2c-0.1,0,0-0.2-0.2-0.3c-0.2-0.1-0.4-0.2-0.6-0.1c-0.2,0.1,0-0.1-0.3-0.1
		c-0.3,0-0.1-0.1-0.4-0.1c-0.3,0-0.2-0.1-0.3,0.1c-0.1,0.2-0.2,0-0.3-0.1c-0.1-0.1-0.4-0.1-0.5-0.2c-0.1-0.1-1.2-0.7-1.6-0.7
		c-0.4,0-1.1-0.3-1.5-0.4c-0.5-0.1-0.8-0.3-1.1-0.3c-0.3,0-0.2-0.1-0.2-0.2c-0.1-0.1-0.1-0.2-0.1-0.3c0-0.2-0.2-0.3-0.3-0.4
		c-0.1-0.1-0.1,0-0.2,0C11.3,15.7,11.3,15.5,11.2,15.6z"/>
	<path fill="#FFFFFF" d="M31.3,19.2c-0.1-0.1-0.2-0.2-0.2-0.3c0.1-0.1,0.2,0.1,0.2,0.1c0,0.1,0.1,0.2,0.3,0.2c0.2,0,0.2,0.2,0.3,0.1
		c0.1-0.1,0.1-0.1,0.1,0c0.1,0.1,0.2,0.1,0.1,0.2c-0.1,0.1-0.1,0.1-0.2,0.1c-0.2,0-0.2-0.1-0.2-0.1c0-0.1-0.1-0.2-0.2-0.2
		C31.3,19.3,31.3,19.2,31.3,19.2z"/>
	<path fill="#FFFFFF" d="M27.9,19.9c0,0,0-0.3,0.1-0.3c0.1,0,0.2,0,0.2,0.1c0,0.1,0,0.2,0,0.2c0,0.1,0,0.1,0,0.2
		c0,0.2,0,0.2-0.1,0.2c-0.1,0-0.1,0.1-0.3,0.1c-0.2,0-0.1-0.1-0.1-0.2c0.1-0.1,0.1-0.2,0.1-0.3C27.8,19.9,27.8,19.9,27.9,19.9z"/>
	<path fill="#FFFFFF" d="M29.9,19.6c0,0,0.2,0.1,0.2,0.2c0,0.1-0.1,0.2-0.1,0.3c-0.1,0.1-0.3,0.1-0.3,0.2c-0.1,0.1-0.1,0.3-0.1,0.4
		c0,0.1,0.1,0.4,0.2,0.5c0.1,0.1,0.2,0.2,0.3,0.1c0.1,0,0.2,0,0.2,0c0,0,0,0.2-0.2,0.2c-0.2,0-0.4,0.1-0.7,0.1
		c-0.3,0-0.3,0.2-0.6,0.3c-0.2,0.1-0.2,0.3-0.2,0.5c0,0.2,0,0.3,0.1,0.4c0,0.1,0,0.3,0,0.4c0,0.1,0,0.6-0.1,0.6
		c-0.1,0.1-0.1,0.2-0.1,0.3c0,0.1-0.1,0.2-0.2,0.3c-0.1,0.1,0,0.3-0.1,0.3c-0.2,0-0.1,0-0.1-0.1c0-0.1,0-0.3,0.1-0.3
		s0.1-0.3,0.1-0.4c0-0.1,0.1-0.2,0.1-0.3c0-0.1-0.2,0-0.2,0.1c0,0.1-0.1,0.2-0.1,0.3c0,0.1,0.1,0,0,0.2c-0.1,0.1-0.1,0.3-0.1,0.4
		c-0.1,0.1-0.2,0-0.2-0.1c0-0.1-0.1-0.2,0-0.3c0.1-0.1,0.1-0.2,0.1-0.3c0-0.1,0.1-0.1,0.1-0.3c0-0.1-0.2-0.2,0-0.3
		c0.1-0.1,0.1-0.2,0-0.3c0-0.1-0.1-0.1,0-0.3s0.3-0.3,0.1-0.3c-0.2,0-0.1,0-0.1,0.1c-0.1,0-0.2,0.1-0.2,0.2c0,0.1-0.1,0.4-0.2,0.4
		c-0.1,0-0.2,0.2-0.2,0.3c0,0.2-0.1,0.3-0.2,0.3c-0.1,0-0.2-0.1-0.3-0.1c-0.1,0-0.1,0.1-0.2,0.2c-0.1,0,0,0.2-0.2,0.1
		c-0.2-0.1-0.2,0.1-0.1,0.2c0.1,0.1,0,0.2-0.1,0.3c-0.1,0.1,0.1,0.3-0.1,0.3c-0.2,0-0.5,0.1-0.5,0.3c0,0.2,0.1,0.2,0.1,0.4
		c0,0.2,0,0.3-0.1,0.4c-0.1,0.2,0,0.4,0,0.6c-0.1,0.2-0.3,0.5-0.4,0.8c-0.1,0.3-0.3,0.5-0.4,0.5c-0.1,0-0.1,0.1-0.1,0.3
		c0,0.1,0.2,0.1,0.2,0.4c0,0.4,0.1,0.6,0,0.8c-0.1,0.2-0.3,0.4-0.3,0.6c0,0.1,0,0.4,0.1,0.6c0.1,0.2,0.2,1,0.4,1.3
		c0.2,0.3,0.4,0.8,0.4,1c0,0.2,0.1,0.2,0.1,0.6c0,0.4,0,1.4-0.1,1.7c0,0.3-0.2,0.8-0.2,1c0,0.2-0.2,0.3-0.3,0.6
		c-0.2,0.3-0.4,0.3-0.3,0.6c0,0.3-0.2,0-0.2,0.5c-0.1,0.4-0.3,0.6-0.6,0.8c-0.3,0.1-0.4,0.3-0.3,0.3h7v0.3h0.2v-0.1h1.4v-0.1h1.3
		h1.2l0-0.1h0.8c0,0,0-0.1-0.1-0.2c-0.1,0,0.1-0.1,0.1-0.3c0.1-0.1,0.1-0.1,0.2-0.2c0.1-0.1,0.1-0.2,0.2-0.3
		c0.1-0.1,0.2-0.3,0.4-0.3c0.1,0-0.2-0.2,0-0.3c0.2-0.1,0.2-0.3,0.2-0.4c0-0.1,0-0.3,0-0.4c0-0.1,0.1-0.4,0.2-0.4
		c0.1,0,0.4,0,0.5-0.2c0.1-0.1,0.2-0.3,0.2-0.4c0-0.2,0-0.4,0.1-0.5c0.1-0.1,0.3,0.2,0.2-0.1c0-0.3-0.2-0.1,0.1-0.3
		c0.3-0.2,0.2-0.2,0.3-0.1c0.1,0,0.2,0.1,0.1,0.2C38,34.8,38,34.9,38,35c0,0,0.2,0.1,0.1,0.2c-0.1,0.1-0.1,0.2,0.1,0
		c0.2-0.2,0.2,0.1,0.3-0.1c0.1-0.1,0.1-0.2,0.2-0.5c0.1-0.3,0.1-0.4,0.1-0.5c0-0.1-0.1-0.2,0-0.3c0.1-0.1-0.1-0.3,0.1-0.4
		c0.2-0.1,0.1-0.4,0.1-0.5c0-0.1-0.3-0.3-0.3-0.4c0-0.1-0.1-0.4-0.1-0.5s0-0.2,0-0.4c-0.1-0.2,0-0.4-0.1-0.7
		c-0.1-0.2-0.2-0.7-0.2-0.9c0-0.2-0.1-0.8-0.2-1.1c-0.1-0.3-0.2-0.3-0.2-0.4s-0.1-0.2-0.2-0.3c-0.1,0-0.1-0.2-0.2-0.2
		c-0.1,0-0.2,0-0.2-0.1c0,0-0.1-0.1-0.2-0.1C37,27.9,37,28,36.8,28c-0.2,0,0,0.1-0.2,0.2c-0.2,0-0.1,0.1-0.3,0.1
		c-0.1,0-0.2,0.1-0.3,0.1c-0.1,0,0,0.1-0.1,0.1c-0.1,0.1-0.3,0.1-0.2,0.2c0.1,0.1,0,0.2-0.1,0.2c-0.1,0-0.2,0-0.1,0.1
		c0,0.1,0,0.1-0.1,0.2c-0.1,0.1,0,0-0.1,0.2c-0.1,0.1-0.2,0.2-0.2,0.1c0-0.1-0.1,0.3-0.3,0.4c-0.2,0.1-0.1,0.3-0.3,0.1
		c-0.2-0.2-0.4-0.2-0.6-0.3c-0.2-0.1-0.2-0.1-0.2-0.2c0-0.1-0.2-0.2-0.1-0.3c0.1-0.1,0.1-0.3,0.1-0.4c0-0.1,0-0.3,0.1-0.3
		c0.1,0-0.1-0.2,0.1-0.3c0.2,0,0.4-0.1,0.5-0.1c0.1,0,0-0.1,0.1-0.2c0.1-0.1,0.3,0,0.3-0.1c0-0.1,0-0.3,0-0.5c0,0,0.1,0,0.1-0.3
		c0-0.3,0.1-0.2,0.2-0.3c0.1-0.1,0.1,0,0.2,0c0.1,0,0.1,0,0.2-0.1c0.1-0.1,0.2-0.1,0.2-0.3c0-0.1,0-0.3,0.1-0.4c0-0.1,0.1-0.8,0-0.9
		c0,0,0.1-0.1,0.1-0.2c0-0.1,0.1-0.2,0-0.4c-0.1-0.1,0-0.3,0-0.5c0-0.2-0.1,0-0.1-0.2c0-0.1,0-0.1-0.1-0.2c-0.1-0.1-0.1-0.1-0.2-0.1
		c-0.1-0.1,0-0.1,0-0.2c-0.1-0.1,0,0,0-0.2c0-0.1-0.1-0.2,0-0.3c0.1,0,0.2-0.1,0.3,0c0.1,0.1,0.1,0,0.2,0.1c0.1,0,0.1-0.1,0.1-0.2
		c0-0.1-0.1-0.1-0.1-0.3c0-0.2-0.1,0-0.1-0.1c-0.1-0.1-0.1-0.2-0.1-0.3c-0.1-0.1-0.1-0.1,0-0.1c0.1-0.1,0-0.2,0-0.2
		c-0.1,0-0.1-0.1-0.2-0.2c-0.1,0,0-0.2-0.2-0.2c-0.2,0-0.3,0-0.4-0.1c-0.1-0.1-0.2-0.3-0.4-0.3c-0.2,0-0.2-0.1-0.3-0.1
		c-0.1-0.1-0.2-0.3-0.3-0.2c-0.1,0.1-0.2-0.1-0.3,0c-0.1,0.1-0.2,0.1-0.3,0c-0.1-0.1,0-0.4-0.1-0.4c-0.1,0-0.1-0.1-0.2-0.1
		c-0.1,0,0-0.1-0.1-0.2c-0.1,0-0.2-0.1-0.3-0.1c-0.1,0-0.3,0-0.4,0c-0.1,0-0.1,0.1-0.2,0C31.7,20,31.7,20,31.6,20
		c-0.1,0,0-0.1-0.1-0.1c-0.1,0-0.2-0.1-0.3-0.1c-0.1,0-0.1-0.2-0.2-0.1c-0.1,0-0.1-0.1-0.2-0.1c-0.1,0,0-0.1-0.1-0.2
		c-0.1,0-0.1,0-0.1,0.1c0,0.1,0,0.1-0.1,0.1c-0.1,0-0.3,0-0.3,0C30.2,19.6,29.9,19.6,29.9,19.6z"/>
	<path fill="#FFFFFF" d="M26.1,23.1c0,0-0.1,0-0.2,0s0,0.1-0.1,0.1c-0.1,0,0,0.1,0.1,0.1S26.1,23.2,26.1,23.1
		C26.1,23.2,26.2,23.2,26.1,23.1z"/>
	<path fill="#FFFFFF" d="M26.5,23c0,0,0-0.4,0-0.4c0,0-0.1-0.1-0.2-0.1c-0.1,0-0.1,0.1-0.1,0.2C26.2,22.8,26.4,23,26.5,23z"/>
</g>
</svg>
