<?xml version="1.0" encoding="utf-8"?>
<!-- Generator: Adobe Illustrator 17.1.0, SVG Export Plug-In . SVG Version: 6.00 Build 0)  -->
<!DOCTYPE svg PUBLIC "-//W3C//DTD SVG 1.1//EN" "http://www.w3.org/Graphics/SVG/1.1/DTD/svg11.dtd">
<svg version="1.1" id="Layer_1" xmlns="http://www.w3.org/2000/svg" xmlns:xlink="http://www.w3.org/1999/xlink" x="0px" y="0px"
	 viewBox="0 0 200 200" enable-background="new 0 0 200 200" xml:space="preserve">
<g>
	<defs>
		<circle id="SVGID_1_" cx="-1124.3" cy="81.7" r="433.5"/>
	</defs>
	<clipPath id="SVGID_2_">
		<use xlink:href="#SVGID_1_"  overflow="visible"/>
	</clipPath>
	<g clip-path="url(#SVGID_2_)">
		<line fill="none" stroke="#000000" stroke-width="2" stroke-miterlimit="10" x1="-1083" y1="177" x2="-988.9" y2="141.3"/>
		<g>
			<g>
				<polygon points="-1440.7,-235.9 -1434.9,-191.5 -1435.5,-192.5 -1405.1,-170 -1404.5,-169.5 -1404.5,-168.8 -1404.5,-144.6 
					-1405.1,-145.8 -1368.3,-115.4 -1368.2,-115.3 -1368,-115.1 -1358.5,-100.6 -1359.8,-101.3 -1314.9,-101.3 -1314.6,-101.3 
					-1314.3,-101.1 -1283.9,-85.2 -1284.3,-85.4 -1251,-78.7 -1251.9,-78.6 -1223,-91.1 -1222.2,-91.4 -1221.5,-90.9 -1204.2,-78.5 
					-1204.8,-78.7 -1175.8,-72.4 -1175.3,-72.2 -1174.9,-71.8 -1163.5,-55.6 -1164.8,-56.2 -1146.9,-56.2 -1146,-56.2 
					-1145.6,-55.5 -1116.5,-8.1 -1117.8,-8.8 -1100.3,-8.8 -1099.7,-8.8 -1099.3,-8.4 -1071.7,16.2 -1071.4,16.4 -1071.3,16.7 
					-1058.9,48.2 -1074,17.9 -1073.6,18.4 -1101.3,-6.2 -1100.3,-5.8 -1117.8,-5.8 -1118.6,-5.8 -1119.1,-6.5 -1148.2,-53.9 
					-1146.9,-53.2 -1164.8,-53.2 -1165.5,-53.2 -1166,-53.9 -1177.4,-70 -1176.5,-69.4 -1205.4,-75.8 -1205.7,-75.9 -1205.9,-76 
					-1223.3,-88.5 -1221.8,-88.3 -1250.7,-75.9 -1251.2,-75.7 -1251.6,-75.8 -1284.9,-82.4 -1285.1,-82.5 -1285.3,-82.6 
					-1315.6,-98.5 -1314.9,-98.3 -1359.8,-98.3 -1360.6,-98.3 -1361,-99 -1370.6,-113.5 -1370.3,-113.1 -1407,-143.5 
					-1407.5,-143.9 -1407.5,-144.6 -1407.5,-168.8 -1406.9,-167.6 -1437.3,-190.1 -1437.8,-190.5 -1437.9,-191.1 -1443.7,-235.5 
									"/>
			</g>
			<polyline fill="none" stroke="#000000" stroke-width="3" stroke-miterlimit="10" points="-1238.5,-82.8 -1238.5,-50.7 
				-1210.9,-29 -1210.9,-4.4 -1187.7,48.2 -1213.1,86.7 -1238.5,154.6 -1222.4,177 -1222.4,190.8 -1206.5,210.2 -1219.5,226.9 
				-1238.5,265.9 -1238.5,285.7 -1225.3,310.8 -1213.1,367.1 -1264,470.2 			"/>
			<polyline fill="none" stroke="#000000" stroke-width="3" stroke-miterlimit="10" points="-1220.5,106.5 -1196.4,119.9 
				-1196.4,141.3 -1182.6,190.8 -1173.3,193.7 -1164.8,210.2 -1164.8,237 -1148.2,247.1 -1116,285.7 			"/>
			<g>
				<polygon points="-1338.4,-100.8 -1309.5,-69 -1309.7,-69.2 -1276.4,-41.7 -1275.9,-41.3 -1275.9,-40.5 -1275.9,-8.7 
					-1276.4,-9.9 -1249.6,11.8 -1249,12.2 -1249,12.9 -1249,39.5 -1249,40.4 -1249.8,40.8 -1278.8,54.9 -1251.3,38.2 -1252,39.5 
					-1252,12.9 -1251.5,14.1 -1278.3,-7.6 -1278.9,-8 -1278.9,-8.7 -1278.9,-40.5 -1278.3,-39.4 -1311.6,-66.9 -1311.6,-66.9 
					-1311.7,-67 -1340.6,-98.8 				"/>
			</g>
			<g>
				<polygon points="-1133,-33.6 -1113.5,-33.6 -1113.2,-33.6 -1112.9,-33.4 -1084.9,-19.3 -1085.5,-19.5 -1063.5,-19.5 
					-1063.3,-19.5 -1063.2,-19.5 -1017.1,-11.7 -1016.5,-11.6 -1016.2,-11.1 -987.7,25 -988.1,24.7 -955,48.2 -989.7,27.2 
					-989.9,27.1 -990.1,26.9 -1018.5,-9.3 -1017.6,-8.7 -1063.7,-16.5 -1063.5,-16.5 -1085.5,-16.5 -1085.9,-16.5 -1086.2,-16.6 
					-1114.2,-30.7 -1113.5,-30.6 -1133,-30.6 				"/>
			</g>
			<polyline fill="none" stroke="#000000" stroke-width="3" stroke-miterlimit="10" points="-1231.1,250.7 -1264,268.8 -1264,293.4 
				-1295,303.5 -1387.2,427.9 			"/>
			<g>
				<polygon points="-1262.5,46.8 -1262.5,66.4 -1262.9,65.4 -1256,72.6 -1255.5,73.2 -1255.6,74 -1262.6,106.9 -1262.6,107.2 
					-1262.9,107.5 -1280.2,127.2 -1265.2,105.6 -1265.5,106.2 -1258.6,73.4 -1258.2,74.7 -1265.1,67.5 -1265.5,67 -1265.5,66.4 
					-1265.5,46.8 				"/>
			</g>
			<g>
				<polygon points="-1071.2,17.6 -1076.9,48.5 -1077.1,47.4 -1062.2,69.9 -1061.8,70.6 -1062,71.2 -1070.9,95.3 -1064.9,70.3 
					-1064.7,71.6 -1079.6,49.1 -1080,48.6 -1079.8,48 -1074.1,17 				"/>
			</g>
		</g>
		<g>
			<path fill="#FFFFFF" d="M-1448.9,408.7c0,0-1.1-32.8-2.8-43.4s-4.3-36.6-1.7-43.6c2.6-7,8.1-5.1,9.6-2.1c1.5,3,6.8,34.9,6.6,55.1
				c-0.2,20.2-3,34-3,34H-1448.9z"/>
			<path fill="#FFFFFF" d="M-1397.3,408.7c0,0,0.9-25.3,2.3-33.6c1.4-8.2,3.5-28.3,1.4-33.7c-2.1-5.4-6.7-3.9-7.9-1.6
				c-1.2,2.3-5.6,27-5.4,42.6c0.2,15.6,2.5,26.3,2.5,26.3H-1397.3z"/>
			<path fill="#FFFFFF" d="M-1440.8,356c0,0,12.8,1.5,12.1-5.1c-0.6-6.6-3.2-17.4,1.5-17.7c4.7-0.2,9.1,2.8,7,22.9
				c-2.7,7.9-20.6,4.1-20.6,4.1V356z"/>
			<path fill="#FFFFFF" d="M-1401.4,383.8c0,0-10.2,1.2-9.7-4.1s2.5-13.9-1.2-14.1c-3.7-0.2-7.3,2.3-5.6,18.3
				c2.2,6.3,16.5,3.3,16.5,3.3V383.8z"/>
			<path fill="#FFFFFF" d="M-1445.2,340.5c0,0-11.5,0.6-12.4-7s-6.3-2.1-3.6,2.1c2.7,4.2,9.7,7.9,16,7.6
				C-1438.8,343-1445.2,340.5-1445.2,340.5z"/>
		</g>
		<g>
			<path fill="#FFFFFF" d="M-854.5,449.1c0,0,1.2-36.5,3.1-48.4c1.9-11.9,4.7-40.8,1.9-48.7c-2.8-7.8-9-5.7-10.7-2.4
				s-7.6,38.9-7.4,61.5c0.2,22.5,3.3,38,3.3,38H-854.5z"/>
			<path fill="#FFFFFF" d="M-863.5,390.2c0,0-14.2,1.7-13.5-5.7c0.7-7.4,3.6-19.5-1.7-19.7c-5.2-0.2-10.2,3.2-7.8,25.6
				c3.1,8.8,23,4.6,23,4.6V390.2z"/>
			<path fill="#FFFFFF" d="M-858.6,373c0,0,12.8,0.7,13.8-7.8c1-8.4,7.1-2.4,4,2.4c-3,4.7-10.8,8.8-17.9,8.4
				C-865.7,375.7-858.6,373-858.6,373z"/>
		</g>
		<g>
			<path fill="#FFFFFF" d="M-1116.1,477.3c0,0-0.7-20.2-1.7-26.7s-2.6-22.5-1-26.8s5-3.1,5.9-1.3c0.9,1.8,4.2,21.5,4.1,33.9
				s-1.8,21-1.8,21H-1116.1z"/>
			<path fill="#FFFFFF" d="M-1111.1,444.8c0,0,7.9,0.9,7.5-3.1c-0.4-4.1-2-10.7,0.9-10.9c2.9-0.1,5.6,1.7,4.3,14.1
				c-1.7,4.9-12.7,2.5-12.7,2.5V444.8z"/>
			<path fill="#FFFFFF" d="M-1113.8,435.4c0,0-7.1,0.4-7.6-4.3s-3.9-1.3-2.2,1.3s6,4.8,9.9,4.7
				C-1109.9,436.9-1113.8,435.4-1113.8,435.4z"/>
		</g>
		<g>
			<path fill="#FFFFFF" d="M-1008.7-166.2c0,0,2.1,0.2,3.1,0.8c0.9,0.6,12.9,0.2,13.8,0c0.9-0.2-4.7-2.6-8.4-3.8
				c-3.7-1.2-6.4-5.1-8.4-5.9s-7.8-2.7-6.7-1.2c1.1,1.5,5.8,2.5,5.8,4c0,1.5-0.1,2.4-2.4,2.1c-2.2-0.2-4-3.4-5.4-3.5
				c-1.4-0.1-9.7-3.1-15.3-13.4c-5.7-10.4-29.8-15.2-36.3-15.2s6.3,1.8,12,6.3c5.8,4.5,25.8,18,14.4,28.1c0,0-2.4,0.2-2.4,0.7
				c0,0,1.2,0.1,0.4,0.8c-0.8,0.7,0.4,1.4,1.9,0c1.5-1.4,2-0.7,3.5-0.7s6.3-0.1,7.3,1.4c1.1,1.5,2.5,2.7-0.7,5
				c-3.2,2.2-3.9,2.5-3.9,2.5s1.3,0,0.9,0.6c-0.4,0.6,0.5,0.9,1.4,0c0.9-0.9,3.8-1.8,8.7-1.5c5,0.2,31.8,4.1,48.8,20.2
				c2.7,2.1,2.4,0.5,0-2.9c-2.4-3.4-15.3-14.5-19.1-16.4c-3.8-1.9-6.4-3.4-8.1-4C-1005.7-163-1008.7-166.2-1008.7-166.2z"/>
			<path fill="#FFFFFF" d="M-1034.6-189.6c0,0,0.5-1.6-1-3.1c-1.5-1.5,1.4,2.9-1.2,1.1c-2.5-1.8,0,2,0,2H-1034.6z"/>
			<path fill="#FFFFFF" d="M-997.4-159.2c0,0,4.6-0.7,1.6,0.8c0,0,3.6-0.4-0.3,0.8C-1000-156.4-997.4-159.2-997.4-159.2z"/>
		</g>
		<g>
			<path fill="#FFFFFF" d="M-877.9-134.5c0,0,1.2,0.1,1.7,0.4c0.5,0.3,7,0.1,7.5,0c0.5-0.1-2.6-1.4-4.6-2.1c-2-0.6-3.5-2.8-4.6-3.2
				c-1.1-0.4-4.2-1.5-3.7-0.6c0.6,0.8,3.1,1.3,3.1,2.2c0,0.8-0.1,1.3-1.3,1.2c-1.2-0.1-2.2-1.9-2.9-1.9c-0.8-0.1-5.3-1.7-8.3-7.3
				c-3.1-5.6-16.2-8.3-19.7-8.3c-3.5,0,3.4,1,6.5,3.4c3.1,2.4,14,9.8,7.8,15.2c0,0-1.3,0.1-1.3,0.4c0,0,0.6,0.1,0.2,0.4
				c-0.4,0.4,0.2,0.8,1,0c0.8-0.8,1.1-0.4,1.9-0.4c0.8,0,3.4-0.1,4,0.8c0.6,0.8,1.3,1.5-0.4,2.7s-2.1,1.3-2.1,1.3s0.7,0,0.5,0.3
				s0.3,0.5,0.8,0c0.5-0.5,2.1-1,4.7-0.8c2.7,0.1,17.3,2.2,26.5,11c1.5,1.2,1.3,0.3,0-1.6s-8.3-7.9-10.4-8.9c-2.1-1-3.5-1.9-4.4-2.2
				S-877.9-134.5-877.9-134.5z"/>
			<path fill="#FFFFFF" d="M-892-147.3c0,0,0.3-0.9-0.6-1.7c-0.8-0.8,0.7,1.6-0.6,0.6s0,1.1,0,1.1H-892z"/>
			<path fill="#FFFFFF" d="M-871.7-130.8c0,0,2.5-0.4,0.9,0.4c0,0,2-0.2-0.2,0.4C-873.2-129.2-871.7-130.8-871.7-130.8z"/>
		</g>
		<polygon fill="#FFFFFF" points="-1401.8,389.2 -1449.8,407.2 -1485.8,398.2 -1521.8,398.2 -1572.8,407.2 -1603.3,407.2 
			-1668.8,407.2 -1719.7,422.2 -1770.8,405.7 -1845.8,422.2 -1896.8,405.7 -1929.8,422.2 -2022.8,455.6 -2022.8,551.2 -306.7,551.2 
			-324.7,455.6 -372.7,443.2 -402.7,455.6 -468.7,434.2 -525.7,440.2 -555.7,416.2 -594.7,422.2 -633.7,419.2 -705.7,410.2 
			-735.7,422.2 -795.7,419.2 -867.7,443.2 -945.7,455.6 -980.9,489.9 -1041.1,485.2 -1100.3,470.2 -1124.3,470.2 -1206.8,485.2 
			-1264,455.6 -1302.8,455.6 -1359.8,434.2 -1380.4,407.2 		"/>
	</g>
	<g clip-path="url(#SVGID_2_)">
		<path fill="#FFFFFF" d="M-821.7,138.6c0.2-1.7,0.2-3.6-0.6-5.6c-1.4-3.6-1.5-0.3-1.9,2.8c-0.1-0.5-0.2-0.9-0.4-1.4
			c-1.3-3.6-1.5-0.4-1.9,2.8c-0.7,0-1.4-0.1-2.2-0.1c0.2-1.7,0.1-3.5-0.6-5.4c-1.5-3.9-1.5,0.3-2,3.6c-0.1-0.3-0.2-0.6-0.3-0.9
			c-1.2-3.3-1.4-0.9-1.8,2c-0.1-0.6-0.3-1.3-0.5-2c-1.2-3.3-1.4-0.9-1.8,2c-0.1-0.6-0.3-1.3-0.5-2c-1.6-4.1-1.5,0.7-2.2,4.2
			c-0.6,0.2-1.2,0.3-1.9,0.5c0.1-1.5-0.1-3-0.7-4.6c-1.4-3.8-1.5,0.1-2,3.4c-0.1-0.3-0.2-0.7-0.3-1c-1.5-3.9-1.5,0.3-2.1,3.6
			c-0.3,0.1-0.6,0.2-0.8,0.2c0-1.2-0.2-2.5-0.7-3.9c-1.4-3.6-1.5-0.4-1.9,2.8c-0.1-0.5-0.2-0.9-0.4-1.4c-1.3-3.6-1.5-0.4-1.9,2.7
			c-0.1-0.5-0.2-1-0.4-1.5c-1.4-3.6-1.5-0.3-1.9,2.8c-0.1-0.5-0.2-0.9-0.4-1.4c-1.2-3.3-1.4-0.8-1.8,2.1c-0.8,0.2-1.6,0.3-2.2,0.4
			c-0.1-0.8-0.3-1.6-0.6-2.4c-1.3-3.5-1.5-0.5-1.9,2.5c0,0,0,0-0.1,0c-1.5-0.1-3.3-0.4-5-0.7c-0.1-0.2-0.1-0.5-0.2-0.7
			c-1-2.6-1.3-1.6-1.6,0.3c-4.1-1-8-2.5-9-4.6c0,0,18.9-2.5,29.8-18c5.5-6.6-8.7,0-14.2,1.4c-5.5,1.4-26,2.7-30.9,5.7l-3.3-6
			l1.6-15.9c0,0,0.8-1.3,2.2-3.2c1.5,3.1,2.7,7.4,3.1,3.1c0.2-2.1-0.4-4.1-1.1-5.7c0.5-0.7,1.1-1.4,1.7-2.1c1.2,2.7,2.1,5.2,2.4,1.6
			c0.1-1.3-0.1-2.6-0.4-3.8c0.4-0.4,0.8-0.8,1.2-1.3c1.1,2.5,1.9,4.6,2.2,1.2c0.1-1.1,0-2.1-0.2-3.1c0.2-0.1,0.3-0.3,0.5-0.4
			c1.4,3,2.5,6.5,2.8,2.5c0.1-1.3-0.1-2.6-0.4-3.8c1.7,3,3.1,8.4,3.4,3.8c0.2-2.5-0.5-4.7-1.5-6.5c0.2-0.3,0.5-0.6,0.7-0.8
			c1.1,2.5,1.9,4.5,2.2,1.2c0.1-1.3-0.1-2.5-0.3-3.6c0.2-0.3,0.4-0.6,0.6-0.9c1.4,3,2.4,6.4,2.7,2.4c0.2-2-0.3-3.8-0.9-5.3
			c0.2-0.4,0.5-0.8,0.7-1.2c1.6,3.1,3,8,3.3,3.5c0.1-1.9-0.2-3.6-0.8-5.1c1,1.6,1.6,2.4,1.6-0.4c0-1.7-0.5-3.2-1.1-4.5
			c0.3-0.7,0.5-1.4,0.7-2.1c1.3,2.3,2.3,4.1,2.2,0.7c0-1.7-0.5-3.2-1.1-4.5c0-0.2,0.1-0.4,0.1-0.6c1.5,2.6,2.7,5.1,2.6,1.4
			c0-1.3-0.3-2.5-0.8-3.6c1.1,1.4,1.8,1.8,1.3-0.8c-0.4-2-1.3-3.6-2.3-4.9c0-0.1,0-0.3,0-0.4c1.4,2,2.4,3.4,2,0.2
			c-0.3-2.6-1.5-4.7-2.8-6.2c-0.7-3.1-2.1-6-4.2-8.6c-7.1-8.7-20.8,0.5-24.1,3.3c-3.3,2.7-38.8,34.1-45.4,36.7
			c-6.6,2.7-17,5.4-20.2,4.3c-3.3-1.1-12,0.5-13.1,7.7c-1.1,7.1-8.2,11.5-7.1,15.9s0,8.7-6,15.9c-4.1,4.8-11.7,16.9-17.2,32.4
			c-17.3,3.5-63.2,12.5-76.3,15c-0.3-0.2-0.6-0.5-1.2-0.6c-3.6-1-4.7,2-4.7,2c-1.2,0.5-1.3,1.9-1.7,3c-0.5,1.1-2.1,2-1.4,2.7
			c0.7,0.7,0,2,0,2c-1.4,0-2,2.5-4.4,3.3c-2.4,0.8-7.6,0.2-7.6,0.2c-0.6-0.5-0.7-2.6-0.7-2.6c0.7-0.3,3.7,1.4,6,0.9s2.2-2.6-0.1-4.4
			c-2.3-1.8-5.1-2.3-5.1-2.3s-0.5-0.2-0.2-2.2c0.3-2,0.5-4.5-3.4-5.6c-3.8-1.1-9.1,0.7-9.1,0.7c-2-0.6-5,0.7-5.1,2
			c-0.1,1.3-0.9,3.7-0.9,3.7s5.7-1.7,0.4,0c-5.4,1.7-7.5,6.5-6.7,8.3c0.8,1.8,4.8,1.1,4.8,1.1c0.4,0.9-0.3,2.3-0.3,2.3
			c-8.8,4.6-0.7,16.9,0,20.4c0.7,3.5,7,9.5,7,9.5c-0.7,3.2,3.2,5.3,3.2,5.3c2.5,4.2,2.5,7.4,2.5,7.4c3.2,0,5.6-3.9,5.6-3.9
			c1.4,1.6,4.2,3.9,6.3,5.5c-0.3,0.3-0.5,0.6-0.8,0.9c-14.8,17.5-24.1,15.9-25.7,14.8c-1.6-1.1-6.6,0.5-14.2,8.2
			c-7.7,7.7-25.7,41.6-33.9,47c-8.2,5.5-41.6,26.2-55.2,39.4c-13.7,13.1-72.7,21.3-113.2,4.4c0,0,36.6-10.4,64.5-20.8
			c0,0-54.7-2.7-79.8,4.4c-5.5,1.7-19.7,12.6-23.5,19.1s0,12.6,0,21.9c0,9.3,46.5,42.7,95.7,43.2c49.2,0.5,78.7-6.6,102.8-16.4
			c0,0,0,8.7-2.7,12.6c-2.7,3.8-2.7,9.8-6.6,13.7c-3.8,3.8-3.8,15.9-3.3,21.9c0.5,6-3.3,21.3-5.5,28.4c-2.2,7.1-6.6,19.7-7.1,29
			c-0.5,9.3-6,14.8-9.3,17s-6,6.6-6,9.8c0,0,2.7-3.3,5.5-3.3c0,0,3.3,4.9,9.8,3.3s8.7-6,9.8-12c1.1-6,3.8-2.7,4.4,2.7
			c0.5,5.5,2.7,9.4,7.1,9.6c0,0,9.3,1.3,9.3-5.8c0-7.1,6-9.8,9.3-6s13.1,17,20.2,7.7c0,0,4.9,2.5,4.4,4.3c0,0,1.6-8.6-6.6-10.8
			c0,0-13.1-19.1-13.1-27.9c-0.2-3.3-3.3-8.2-1.1-14.8s-3.8-11.2-3.3-16.4c0.5-5.2,0.8-15,3.3-20.5c2.5-5.5,3.8-12.9,10.4-17.8
			c6.6-4.9,24.9-20.2,26-32.5c0,0,58-3,64.8-10.9c6.8-7.9,0.3-25.2,8.7-27.1c8.5-1.9,24.1-0.5,21.3,10.1c-2.7,10.7-15,20.5,7.4,54.1
			c9.3,13.4,4.1,17.2,4.1,23.2s-2.7,11.5,22.1,29.5c6.6,4.4,2.7,13.7,5.7,17.8c3,4.1,5.2,15.9,11.8,15.9c0,0-3.3-4.4-3.3-6.3
			s-2.2-10.1,1.6-7.7c3.8,2.5,5.7,19.4,4.9,29.5c-0.8,10.1,6.6,6.6,7.4,6.6c0.8,0,0.3,6.8,12,4.4c11.8-2.5,36.4,3.6,36.9-1.9
			c0,0,4.9-1.1,9,1.1c0,0-2.7-6.3-12-8.5s-26-15-27.6-18.9s-8.7-11.2-8.7-15c0-3.8-0.8-8.5-8.7-13.4s-22.1-33.4-20-45.7
			c2.2-12.3,7.1-39.4,2.7-58.5c-4.4-19.1-1.1-34.7-5.5-39.1c-4.4-4.4-2.7-10.9-2.7-10.9s15.7-9.3,27.3-20.4
			c2.4,6.2,8.9,14.9,11.5,20.1c3.6,7.1,8.4,9.8,8.4,9.8c-6.3,4.7-3.7,10.9-3.7,10.9c-0.5,3-3.6,6.8-3.6,6.8
			c6.6-1.4,10.4-10.9,10.4-10.9c-0.5,4.4,1.4,7.7,1.4,7.7c-0.8,3.8-4.5,6.8-4.5,6.8c5.4-0.8,7.5-6.3,7.5-6.3
			c5.5-9.8,0-20.2-5.2-24.3c-5.2-4.1-10.7-21.3-10.7-21.3s0.8-4.9,4.4-12.8c2.1-4.7-0.3-8.2-2.7-10.2c2.8-18.5,0.7-48.3,8.1-61.1
			c8.7-15,20.5-33.6,52.5-32.8c20,0.8,24.1-12,47.3-18.6c14.8-5.7,24.1-8.7,24.6-19.4C-820,141.1-820.6,139.6-821.7,138.6z
			 M-1031.5,196.8c-3.6,0.5-10,2.4-16.5,4.8l-2-0.1c-4.6,0.1-10.2-1.4-13.2-1.6s-4.4-1.5-6.7-1.7c-2.4-0.2-4.2,1.7-4.2,1.7
			c-3-0.3-8,2.1-9.7,3.9c-1.6,1.8-7.7,2-7.7,2c-0.3-2.4-1.6-5.3-4-5.9c-2.4-0.6-1.9-2.6-1.9-2.6c0.8,0,2.1-0.4,3.3-1.5
			c1.2-1.2,4.9-1.7,7.1-2.6c2.2-0.8,3-3.3,3.4-5.3c0.3-1.6,0.6-2.2,1.3-2.5c0.8,0.7,1.9,1.3,3.5,1.1c0.3-0.1,1.1,0.7,1.3,1.8
			c0.2,0.9,0.1,2.4-2.1,3c-2.7,0.7-3.9,1.5-4,2.7c-0.1,0.9,0.6,1.6,1.2,1.9l0.9-2c0.1,0.1,0.1,0.4,0,0.5c0,0,0.4-0.4,2.4-1
			c3.3-0.9,4.1-3.5,3.7-5.5c-0.4-1.9-1.9-3.8-3.7-3.5c-0.6,0.1-1.1-0.1-1.5-0.3c0.3-0.8,0.2-1.9-0.2-2.4c-0.7-1-0.1-3.2-0.1-3.2
			s0.7-0.9,1-1.9c12.8-2.5,56.9-11.1,75.1-14.8c-2.2,6.7-4,14-5,21.5C-1015.6,201.8-1023.3,195.7-1031.5,196.8z"/>
		<line fill="none" stroke="#000000" stroke-width="2" stroke-miterlimit="10" x1="-1083" y1="177" x2="-988.9" y2="141.3"/>
		<path fill="#FFFFFF" d="M-1123.9,190.8c0,0-7.5,7.6-10.2,12.6c0,0-7.2-0.2-8.4-3c0,0,2.3-1.6,0-3.3c0,0,0.4-5.3-1.9-4
			c-2.3,1.2-4.9,4-3.4,7.4c1.5,3.4,3.8,5.3,3.8,5.3l-0.8,2.3c0,0,8,3.4,14.4,1.9s7.2-8.8,11.4-9.3
			C-1114.7,200-1123.9,190.8-1123.9,190.8z"/>
		<g>
			<path fill="#FFFFFF" d="M-1448.9,408.7c0,0-1.1-32.8-2.8-43.4s-4.3-36.6-1.7-43.6c2.6-7,8.1-5.1,9.6-2.1c1.5,3,6.8,34.9,6.6,55.1
				c-0.2,20.2-3,34-3,34H-1448.9z"/>
			<path fill="#FFFFFF" d="M-1397.3,408.7c0,0,0.9-25.3,2.3-33.6c1.4-8.2,3.5-28.3,1.4-33.7c-2.1-5.4-6.7-3.9-7.9-1.6
				c-1.2,2.3-5.6,27-5.4,42.6c0.2,15.6,2.5,26.3,2.5,26.3H-1397.3z"/>
			<path fill="#FFFFFF" d="M-1440.8,356c0,0,12.8,1.5,12.1-5.1c-0.6-6.6-3.2-17.4,1.5-17.7c4.7-0.2,9.1,2.8,7,22.9
				c-2.7,7.9-20.6,4.1-20.6,4.1V356z"/>
			<path fill="#FFFFFF" d="M-1401.4,383.8c0,0-10.2,1.2-9.7-4.1s2.5-13.9-1.2-14.1c-3.7-0.2-7.3,2.3-5.6,18.3
				c2.2,6.3,16.5,3.3,16.5,3.3V383.8z"/>
			<path fill="#FFFFFF" d="M-1445.2,340.5c0,0-11.5,0.6-12.4-7s-6.3-2.1-3.6,2.1c2.7,4.2,9.7,7.9,16,7.6
				C-1438.8,343-1445.2,340.5-1445.2,340.5z"/>
		</g>
		<g>
			<path fill="#FFFFFF" d="M-854.5,449.1c0,0,1.2-36.5,3.1-48.4c1.9-11.9,4.7-40.8,1.9-48.7c-2.8-7.8-9-5.7-10.7-2.4
				s-7.6,38.9-7.4,61.5c0.2,22.5,3.3,38,3.3,38H-854.5z"/>
			<path fill="#FFFFFF" d="M-863.5,390.2c0,0-14.2,1.7-13.5-5.7c0.7-7.4,3.6-19.5-1.7-19.7c-5.2-0.2-10.2,3.2-7.8,25.6
				c3.1,8.8,23,4.6,23,4.6V390.2z"/>
			<path fill="#FFFFFF" d="M-858.6,373c0,0,12.8,0.7,13.8-7.8c1-8.4,7.1-2.4,4,2.4c-3,4.7-10.8,8.8-17.9,8.4
				C-865.7,375.7-858.6,373-858.6,373z"/>
		</g>
		<g>
			<path fill="#FFFFFF" d="M-1116.1,477.3c0,0-0.7-20.2-1.7-26.7s-2.6-22.5-1-26.8s5-3.1,5.9-1.3c0.9,1.8,4.2,21.5,4.1,33.9
				s-1.8,21-1.8,21H-1116.1z"/>
			<path fill="#FFFFFF" d="M-1111.1,444.8c0,0,7.9,0.9,7.5-3.1c-0.4-4.1-2-10.7,0.9-10.9c2.9-0.1,5.6,1.7,4.3,14.1
				c-1.7,4.9-12.7,2.5-12.7,2.5V444.8z"/>
			<path fill="#FFFFFF" d="M-1113.8,435.4c0,0-7.1,0.4-7.6-4.3s-3.9-1.3-2.2,1.3s6,4.8,9.9,4.7
				C-1109.9,436.9-1113.8,435.4-1113.8,435.4z"/>
		</g>
		<g>
			<path fill="#FFFFFF" d="M-1008.7-166.2c0,0,2.1,0.2,3.1,0.8c0.9,0.6,12.9,0.2,13.8,0c0.9-0.2-4.7-2.6-8.4-3.8
				c-3.7-1.2-6.4-5.1-8.4-5.9s-7.8-2.7-6.7-1.2c1.1,1.5,5.8,2.5,5.8,4c0,1.5-0.1,2.4-2.4,2.1c-2.2-0.2-4-3.4-5.4-3.5
				c-1.4-0.1-9.7-3.1-15.3-13.4c-5.7-10.4-29.8-15.2-36.3-15.2s6.3,1.8,12,6.3c5.8,4.5,25.8,18,14.4,28.1c0,0-2.4,0.2-2.4,0.7
				c0,0,1.2,0.1,0.4,0.8c-0.8,0.7,0.4,1.4,1.9,0c1.5-1.4,2-0.7,3.5-0.7s6.3-0.1,7.3,1.4c1.1,1.5,2.5,2.7-0.7,5
				c-3.2,2.2-3.9,2.5-3.9,2.5s1.3,0,0.9,0.6c-0.4,0.6,0.5,0.9,1.4,0c0.9-0.9,3.8-1.8,8.7-1.5c5,0.2,31.8,4.1,48.8,20.2
				c2.7,2.1,2.4,0.5,0-2.9c-2.4-3.4-15.3-14.5-19.1-16.4c-3.8-1.9-6.4-3.4-8.1-4C-1005.7-163-1008.7-166.2-1008.7-166.2z"/>
			<path fill="#FFFFFF" d="M-1034.6-189.6c0,0,0.5-1.6-1-3.1c-1.5-1.5,1.4,2.9-1.2,1.1c-2.5-1.8,0,2,0,2H-1034.6z"/>
			<path fill="#FFFFFF" d="M-997.4-159.2c0,0,4.6-0.7,1.6,0.8c0,0,3.6-0.4-0.3,0.8C-1000-156.4-997.4-159.2-997.4-159.2z"/>
		</g>
		<g>
			<path fill="#FFFFFF" d="M-877.9-134.5c0,0,1.2,0.1,1.7,0.4c0.5,0.3,7,0.1,7.5,0c0.5-0.1-2.6-1.4-4.6-2.1c-2-0.6-3.5-2.8-4.6-3.2
				c-1.1-0.4-4.2-1.5-3.7-0.6c0.6,0.8,3.1,1.3,3.1,2.2c0,0.8-0.1,1.3-1.3,1.2c-1.2-0.1-2.2-1.9-2.9-1.9c-0.8-0.1-5.3-1.7-8.3-7.3
				c-3.1-5.6-16.2-8.3-19.7-8.3c-3.5,0,3.4,1,6.5,3.4c3.1,2.4,14,9.8,7.8,15.2c0,0-1.3,0.1-1.3,0.4c0,0,0.6,0.1,0.2,0.4
				c-0.4,0.4,0.2,0.8,1,0c0.8-0.8,1.1-0.4,1.9-0.4c0.8,0,3.4-0.1,4,0.8c0.6,0.8,1.3,1.5-0.4,2.7s-2.1,1.3-2.1,1.3s0.7,0,0.5,0.3
				s0.3,0.5,0.8,0c0.5-0.5,2.1-1,4.7-0.8c2.7,0.1,17.3,2.2,26.5,11c1.5,1.2,1.3,0.3,0-1.6s-8.3-7.9-10.4-8.9c-2.1-1-3.5-1.9-4.4-2.2
				S-877.9-134.5-877.9-134.5z"/>
			<path fill="#FFFFFF" d="M-892-147.3c0,0,0.3-0.9-0.6-1.7c-0.8-0.8,0.7,1.6-0.6,0.6s0,1.1,0,1.1H-892z"/>
			<path fill="#FFFFFF" d="M-871.7-130.8c0,0,2.5-0.4,0.9,0.4c0,0,2-0.2-0.2,0.4C-873.2-129.2-871.7-130.8-871.7-130.8z"/>
		</g>
		<polygon fill="#FFFFFF" points="-1401.8,389.2 -1449.8,407.2 -1485.8,398.2 -1521.8,398.2 -1572.8,407.2 -1603.3,407.2 
			-1668.8,407.2 -1719.7,422.2 -1770.8,405.7 -1845.8,422.2 -1896.8,405.7 -1929.8,422.2 -2022.8,455.6 -2022.8,551.2 -306.7,551.2 
			-324.7,455.6 -372.7,443.2 -402.7,455.6 -468.7,434.2 -525.7,440.2 -555.7,416.2 -594.7,422.2 -633.7,419.2 -705.7,410.2 
			-735.7,422.2 -795.7,419.2 -867.7,443.2 -945.7,455.6 -980.9,489.9 -1041.1,485.2 -1100.3,470.2 -1124.3,470.2 -1206.8,485.2 
			-1264,455.6 -1302.8,455.6 -1359.8,434.2 -1380.4,407.2 		"/>
	</g>
</g>
<circle fill="none" stroke="#000000" stroke-width="20" stroke-miterlimit="10" cx="-1124.3" cy="81.7" r="433.5"/>
<g>
	<defs>
		<circle id="SVGID_3_" cx="100" cy="100" r="100"/>
	</defs>
	<clipPath id="SVGID_4_">
		<use xlink:href="#SVGID_3_"  overflow="visible"/>
	</clipPath>
	<g clip-path="url(#SVGID_4_)">
		<line fill="none" stroke="#000000" stroke-width="0.4613" stroke-miterlimit="10" x1="109.5" y1="122" x2="131.2" y2="113.8"/>
		<g>
			<g>
				<polygon points="27,26.7 28.3,37 28.2,36.8 35.2,42 35.4,42.1 35.4,42.2 35.4,47.8 35.2,47.5 43.7,54.5 43.7,54.6 43.8,54.6 
					46,58 45.7,57.8 56,57.8 56.1,57.8 56.2,57.8 63.2,61.5 63.1,61.5 70.8,63 70.6,63 77.2,60.2 77.4,60.1 77.6,60.2 81.6,63.1 
					81.4,63 88.1,64.5 88.2,64.5 88.3,64.6 90.9,68.3 90.7,68.2 94.8,68.2 95,68.2 95.1,68.4 101.8,79.3 101.5,79.1 105.5,79.1 
					105.7,79.1 105.8,79.2 112.1,84.9 112.2,84.9 112.2,85 115.1,92.3 111.6,85.3 111.7,85.4 105.3,79.7 105.5,79.8 101.5,79.8 
					101.3,79.8 101.2,79.7 94.5,68.7 94.8,68.9 90.7,68.9 90.5,68.9 90.4,68.7 87.7,65 88,65.1 81.3,63.7 81.2,63.7 81.2,63.6 
					77.2,60.8 77.5,60.8 70.8,63.7 70.7,63.7 70.6,63.7 63,62.1 62.9,62.1 62.9,62.1 55.9,58.5 56,58.5 45.7,58.5 45.5,58.5 
					45.4,58.3 43.2,55 43.3,55.1 34.8,48.1 34.7,48 34.7,47.8 34.7,42.2 34.8,42.5 27.8,37.3 27.7,37.2 27.7,37.1 26.3,26.8 				"/>
			</g>
			<polyline fill="none" stroke="#000000" stroke-width="0.692" stroke-miterlimit="10" points="73.7,62.1 73.7,69.5 80,74.5 
				80,80.1 85.4,92.3 79.5,101.2 73.7,116.8 77.4,122 77.4,125.2 81,129.7 78,133.5 73.7,142.5 73.7,147.1 76.7,152.8 79.5,165.8 
				67.8,189.6 			"/>
			<polyline fill="none" stroke="#000000" stroke-width="0.692" stroke-miterlimit="10" points="77.8,105.7 83.4,108.8 83.4,113.8 
				86.5,125.2 88.7,125.8 90.7,129.7 90.7,135.8 94.5,138.2 101.9,147.1 			"/>
			<g>
				<polygon points="50.6,57.9 57.3,65.2 57.2,65.2 64.9,71.5 65,71.6 65,71.8 65,79.1 64.9,78.9 71.1,83.9 71.2,84 71.2,84.1 
					71.2,90.3 71.2,90.5 71,90.6 64.4,93.8 70.7,90 70.5,90.3 70.5,84.1 70.7,84.4 64.5,79.4 64.3,79.3 64.3,79.1 64.3,71.8 
					64.5,72.1 56.8,65.7 56.8,65.7 56.8,65.7 50.1,58.4 				"/>
			</g>
			<g>
				<polygon points="98,73.4 102.5,73.4 102.6,73.4 102.6,73.5 109.1,76.7 108.9,76.7 114,76.7 114,76.7 114.1,76.7 124.7,78.5 
					124.9,78.5 124.9,78.6 131.5,86.9 131.4,86.9 139,92.3 131,87.4 131,87.4 130.9,87.4 124.4,79 124.6,79.2 114,77.4 114,77.4 
					108.9,77.4 108.8,77.4 108.8,77.3 102.3,74.1 102.5,74.1 98,74.1 				"/>
			</g>
			<polyline fill="none" stroke="#000000" stroke-width="0.692" stroke-miterlimit="10" points="75.4,139 67.8,143.2 67.8,148.8 
				60.6,151.2 39.3,179.9 			"/>
			<g>
				<polygon points="68.1,92 68.1,96.5 68,96.2 69.6,97.9 69.7,98 69.7,98.2 68.1,105.8 68.1,105.9 68,106 64,110.5 67.5,105.5 
					67.4,105.7 69,98.1 69.1,98.4 67.5,96.7 67.4,96.6 67.4,96.5 67.4,92 				"/>
			</g>
			<g>
				<polygon points="112.2,85.2 110.9,92.4 110.9,92.1 114.3,97.3 114.4,97.4 114.4,97.6 112.3,103.2 113.7,97.4 113.7,97.7 
					110.3,92.5 110.2,92.4 110.2,92.2 111.6,85.1 				"/>
			</g>
		</g>
		<g>
			<path fill="#FFFFFF" d="M25.1,175.4c0,0-0.2-7.6-0.6-10s-1-8.4-0.4-10.1s1.9-1.2,2.2-0.5s1.6,8,1.5,12.7s-0.7,7.9-0.7,7.9H25.1z"
				/>
			<path fill="#FFFFFF" d="M37,175.4c0,0,0.2-5.8,0.5-7.7s0.8-6.5,0.3-7.8c-0.5-1.3-1.5-0.9-1.8-0.4c-0.3,0.5-1.3,6.2-1.3,9.8
				c0,3.6,0.6,6.1,0.6,6.1H37z"/>
			<path fill="#FFFFFF" d="M27,163.3c0,0,2.9,0.3,2.8-1.2c-0.1-1.5-0.7-4,0.3-4.1c1.1,0,2.1,0.7,1.6,5.3c-0.6,1.8-4.8,0.9-4.8,0.9
				V163.3z"/>
			<path fill="#FFFFFF" d="M36.1,169.7c0,0-2.4,0.3-2.2-0.9s0.6-3.2-0.3-3.3c-0.9,0-1.7,0.5-1.3,4.2c0.5,1.5,3.8,0.8,3.8,0.8V169.7z
				"/>
			<path fill="#FFFFFF" d="M26,159.7c0,0-2.7,0.1-2.9-1.6c-0.2-1.7-1.5-0.5-0.8,0.5c0.6,1,2.2,1.8,3.7,1.7
				C27.4,160.3,26,159.7,26,159.7z"/>
		</g>
		<g>
			<path fill="#FFFFFF" d="M162.2,184.7c0,0,0.3-8.4,0.7-11.2c0.4-2.7,1.1-9.4,0.4-11.2c-0.7-1.8-2.1-1.3-2.5-0.5s-1.8,9-1.7,14.2
				c0.1,5.2,0.8,8.8,0.8,8.8H162.2z"/>
			<path fill="#FFFFFF" d="M160.2,171.2c0,0-3.3,0.4-3.1-1.3c0.2-1.7,0.8-4.5-0.4-4.5c-1.2-0.1-2.4,0.7-1.8,5.9
				c0.7,2,5.3,1.1,5.3,1.1V171.2z"/>
			<path fill="#FFFFFF" d="M161.3,167.2c0,0,3,0.2,3.2-1.8c0.2-1.9,1.6-0.5,0.9,0.5c-0.7,1.1-2.5,2-4.1,1.9
				C159.6,167.8,161.3,167.2,161.3,167.2z"/>
		</g>
		<g>
			<path fill="#FFFFFF" d="M101.9,191.3c0,0-0.2-4.7-0.4-6.2c-0.2-1.5-0.6-5.2-0.2-6.2c0.4-1,1.1-0.7,1.4-0.3s1,5,0.9,7.8
				s-0.4,4.8-0.4,4.8H101.9z"/>
			<path fill="#FFFFFF" d="M103,183.8c0,0,1.8,0.2,1.7-0.7s-0.5-2.5,0.2-2.5c0.7,0,1.3,0.4,1,3.3c-0.4,1.1-2.9,0.6-2.9,0.6V183.8z"
				/>
			<path fill="#FFFFFF" d="M102.4,181.6c0,0-1.6,0.1-1.8-1c-0.1-1.1-0.9-0.3-0.5,0.3c0.4,0.6,1.4,1.1,2.3,1.1
				C103.3,181.9,102.4,181.6,102.4,181.6z"/>
		</g>
		<g>
			<path fill="#FFFFFF" d="M126.6,42.8c0,0,0.5,0.1,0.7,0.2s3,0.1,3.2,0c0.2-0.1-1.1-0.6-1.9-0.9c-0.9-0.3-1.5-1.2-1.9-1.4
				c-0.5-0.2-1.8-0.6-1.6-0.3c0.2,0.4,1.3,0.6,1.3,0.9s0,0.5-0.5,0.5c-0.5-0.1-0.9-0.8-1.3-0.8c-0.3,0-2.2-0.7-3.5-3.1
				s-6.9-3.5-8.4-3.5c-1.5,0,1.4,0.4,2.8,1.4c1.3,1,6,4.2,3.3,6.5c0,0-0.5,0.1-0.5,0.2c0,0,0.3,0,0.1,0.2c-0.2,0.2,0.1,0.3,0.4,0
				s0.5-0.2,0.8-0.2s1.4,0,1.7,0.3c0.2,0.4,0.6,0.6-0.2,1.1c-0.7,0.5-0.9,0.6-0.9,0.6s0.3,0,0.2,0.1c-0.1,0.1,0.1,0.2,0.3,0
				s0.9-0.4,2-0.4c1.1,0.1,7.3,1,11.3,4.7c0.6,0.5,0.5,0.1,0-0.7c-0.5-0.8-3.5-3.3-4.4-3.8s-1.5-0.8-1.9-0.9
				C127.4,43.6,126.6,42.8,126.6,42.8z"/>
			<path fill="#FFFFFF" d="M120.7,37.4c0,0,0.1-0.4-0.2-0.7s0.3,0.7-0.3,0.3c-0.6-0.4,0,0.5,0,0.5H120.7z"/>
			<path fill="#FFFFFF" d="M129.3,44.4c0,0,1.1-0.2,0.4,0.2c0,0,0.8-0.1-0.1,0.2S129.3,44.4,129.3,44.4z"/>
		</g>
		<g>
			<path fill="#FFFFFF" d="M156.8,50.1c0,0,0.3,0,0.4,0.1c0.1,0.1,1.6,0,1.7,0c0.1,0-0.6-0.3-1.1-0.5c-0.5-0.1-0.8-0.6-1.1-0.7
				c-0.3-0.1-1-0.3-0.8-0.1s0.7,0.3,0.7,0.5s0,0.3-0.3,0.3c-0.3,0-0.5-0.4-0.7-0.4c-0.2,0-1.2-0.4-1.9-1.7c-0.7-1.3-3.7-1.9-4.6-1.9
				c-0.8,0,0.8,0.2,1.5,0.8s3.2,2.3,1.8,3.5c0,0-0.3,0-0.3,0.1c0,0,0.1,0,0,0.1c-0.1,0.1,0,0.2,0.2,0c0.2-0.2,0.3-0.1,0.4-0.1
				s0.8,0,0.9,0.2c0.1,0.2,0.3,0.3-0.1,0.6s-0.5,0.3-0.5,0.3s0.2,0,0.1,0.1c0,0.1,0.1,0.1,0.2,0c0.1-0.1,0.5-0.2,1.1-0.2
				c0.6,0,4,0.5,6.1,2.5c0.3,0.3,0.3,0.1,0-0.4c-0.3-0.4-1.9-1.8-2.4-2.1c-0.5-0.2-0.8-0.4-1-0.5S156.8,50.1,156.8,50.1z"/>
			<path fill="#FFFFFF" d="M153.6,47.2c0,0,0.1-0.2-0.1-0.4c-0.2-0.2,0.2,0.4-0.1,0.1c-0.3-0.2,0,0.3,0,0.3H153.6z"/>
			<path fill="#FFFFFF" d="M158.2,51c0,0,0.6-0.1,0.2,0.1c0,0,0.5,0,0,0.1C157.9,51.4,158.2,51,158.2,51z"/>
		</g>
		<polygon fill="#FFFFFF" points="36,170.9 24.9,175.1 16.6,173 8.3,173 -3.5,175.1 -10.5,175.1 -25.6,175.1 -37.3,178.5 
			-49.1,174.7 -66.4,178.5 -78.2,174.7 -85.8,178.5 -107.3,186.3 -107.3,208.3 288.6,208.3 284.4,186.3 273.4,183.4 266.4,186.3 
			251.2,181.3 238.1,182.7 231.1,177.2 222.1,178.5 213.1,177.9 196.5,175.8 189.6,178.5 175.8,177.9 159.2,183.4 141.2,186.3 
			133.1,194.2 119.2,193.1 105.5,189.6 100,189.6 81,193.1 67.8,186.3 58.8,186.3 45.7,181.3 40.9,175.1 		"/>
	</g>
	<g clip-path="url(#SVGID_4_)">
		<path d="M169.8,113.1c0.1-0.4,0-0.8-0.1-1.3c-0.3-0.8-0.3-0.1-0.4,0.7c0-0.1-0.1-0.2-0.1-0.3c-0.3-0.8-0.3-0.1-0.4,0.6
			c-0.2,0-0.3,0-0.5,0c0-0.4,0-0.8-0.1-1.3c-0.3-0.9-0.3,0.1-0.5,0.8c0-0.1,0-0.1-0.1-0.2c-0.3-0.8-0.3-0.2-0.4,0.5
			c0-0.1-0.1-0.3-0.1-0.5c-0.3-0.8-0.3-0.2-0.4,0.5c0-0.1-0.1-0.3-0.1-0.5c-0.4-1-0.3,0.2-0.5,1c-0.1,0-0.3,0.1-0.4,0.1
			c0-0.3,0-0.7-0.2-1.1c-0.3-0.9-0.3,0-0.5,0.8c0-0.1,0-0.2-0.1-0.2c-0.3-0.9-0.3,0.1-0.5,0.8c-0.1,0-0.1,0-0.2,0.1
			c0-0.3,0-0.6-0.2-0.9c-0.3-0.8-0.3-0.1-0.4,0.6c0-0.1-0.1-0.2-0.1-0.3c-0.3-0.8-0.3-0.1-0.4,0.6c0-0.1-0.1-0.2-0.1-0.3
			c-0.3-0.8-0.3-0.1-0.4,0.7c0-0.1-0.1-0.2-0.1-0.3c-0.3-0.8-0.3-0.2-0.4,0.5c-0.2,0-0.4,0.1-0.5,0.1c0-0.2-0.1-0.4-0.1-0.6
			c-0.3-0.8-0.3-0.1-0.4,0.6c0,0,0,0,0,0c-0.4,0-0.8-0.1-1.2-0.2c0-0.1,0-0.1,0-0.2c-0.2-0.6-0.3-0.4-0.4,0.1
			c-1-0.2-1.8-0.6-2.1-1.1c0,0,4.4-0.6,6.9-4.2c1.3-1.5-2,0-3.3,0.3s-6,0.6-7.1,1.3l-0.8-1.4l0.4-3.7c0,0,0.2-0.3,0.5-0.7
			c0.4,0.7,0.6,1.7,0.7,0.7c0-0.5-0.1-0.9-0.3-1.3c0.1-0.2,0.3-0.3,0.4-0.5c0.3,0.6,0.5,1.2,0.5,0.4c0-0.3,0-0.6-0.1-0.9
			c0.1-0.1,0.2-0.2,0.3-0.3c0.3,0.6,0.4,1.1,0.5,0.3c0-0.3,0-0.5-0.1-0.7c0,0,0.1-0.1,0.1-0.1c0.3,0.7,0.6,1.5,0.6,0.6
			c0-0.3,0-0.6-0.1-0.9c0.4,0.7,0.7,1.9,0.8,0.9c0-0.6-0.1-1.1-0.3-1.5c0.1-0.1,0.1-0.1,0.2-0.2c0.3,0.6,0.4,1,0.5,0.3
			c0-0.3,0-0.6-0.1-0.8c0-0.1,0.1-0.1,0.1-0.2c0.3,0.7,0.6,1.5,0.6,0.6c0-0.5-0.1-0.9-0.2-1.2c0.1-0.1,0.1-0.2,0.2-0.3
			c0.4,0.7,0.7,1.8,0.8,0.8c0-0.4-0.1-0.8-0.2-1.2c0.2,0.4,0.4,0.5,0.4-0.1c0-0.4-0.1-0.7-0.3-1c0.1-0.2,0.1-0.3,0.2-0.5
			c0.3,0.5,0.5,0.9,0.5,0.2c0-0.4-0.1-0.7-0.3-1c0,0,0-0.1,0-0.1c0.3,0.6,0.6,1.2,0.6,0.3c0-0.3-0.1-0.6-0.2-0.8
			c0.3,0.3,0.4,0.4,0.3-0.2c-0.1-0.5-0.3-0.8-0.5-1.1c0,0,0-0.1,0-0.1c0.3,0.5,0.5,0.8,0.5,0.1c-0.1-0.6-0.3-1.1-0.6-1.4
			c-0.2-0.7-0.5-1.4-1-2c-1.6-2-4.8,0.1-5.5,0.8s-9,7.9-10.5,8.5c-1.5,0.6-3.9,1.2-4.7,1c-0.8-0.3-2.8,0.1-3,1.8
			c-0.3,1.6-1.9,2.6-1.6,3.7c0.3,1,0,2-1.4,3.7c-0.9,1.1-2.7,3.9-4,7.5c-4,0.8-14.6,2.9-17.6,3.5c-0.1-0.1-0.1-0.1-0.3-0.1
			c-0.8-0.2-1.1,0.5-1.1,0.5c-0.3,0.1-0.3,0.4-0.4,0.7c-0.1,0.3-0.5,0.5-0.3,0.6c0.2,0.2,0,0.5,0,0.5c-0.3,0-0.5,0.6-1,0.8
			c-0.5,0.2-1.7,0-1.7,0c-0.1-0.1-0.2-0.6-0.2-0.6c0.2-0.1,0.9,0.3,1.4,0.2s0.5-0.6,0-1c-0.5-0.4-1.2-0.5-1.2-0.5s-0.1,0,0-0.5
			c0.1-0.5,0.1-1-0.8-1.3c-0.9-0.3-2.1,0.2-2.1,0.2c-0.5-0.1-1.2,0.2-1.2,0.5c0,0.3-0.2,0.9-0.2,0.9s1.3-0.4,0.1,0
			c-1.2,0.4-1.7,1.5-1.5,1.9c0.2,0.4,1.1,0.3,1.1,0.3c0.1,0.2-0.1,0.5-0.1,0.5c-2,1.1-0.2,3.9,0,4.7c0.2,0.8,1.6,2.2,1.6,2.2
			c-0.2,0.7,0.7,1.2,0.7,1.2c0.6,1,0.6,1.7,0.6,1.7c0.7,0,1.3-0.9,1.3-0.9c0.3,0.4,1,0.9,1.4,1.3c-0.1,0.1-0.1,0.1-0.2,0.2
			c-3.4,4-5.5,3.7-5.9,3.4c-0.4-0.3-1.5,0.1-3.3,1.9c-1.8,1.8-5.9,9.6-7.8,10.8s-9.6,6.1-12.7,9.1s-16.8,4.9-26.1,1
			c0,0,8.5-2.4,14.9-4.8c0,0-12.6-0.6-18.4,1c-1.3,0.4-4.5,2.9-5.4,4.4c-0.9,1.5,0,2.9,0,5c0,2.1,10.7,9.8,22.1,10
			c11.4,0.1,18.2-1.5,23.7-3.8c0,0,0,2-0.6,2.9s-0.6,2.3-1.5,3.2c-0.9,0.9-0.9,3.7-0.8,5c0.1,1.4-0.8,4.9-1.3,6.6
			c-0.5,1.6-1.5,4.5-1.6,6.7c-0.1,2.1-1.4,3.4-2.1,3.9c-0.8,0.5-1.4,1.5-1.4,2.3c0,0,0.6-0.8,1.3-0.8c0,0,0.8,1.1,2.3,0.8
			c1.5-0.4,2-1.4,2.3-2.8c0.3-1.4,0.9-0.6,1,0.6c0.1,1.3,0.6,2.2,1.6,2.2c0,0,2.1,0.3,2.1-1.3c0-1.6,1.4-2.3,2.1-1.4
			c0.8,0.9,3,3.9,4.7,1.8c0,0,1.1,0.6,1,1c0,0,0.4-2-1.5-2.5c0,0-3-4.4-3-6.4c0-0.8-0.8-1.9-0.3-3.4c0.5-1.5-0.9-2.6-0.8-3.8
			c0.1-1.2,0.2-3.5,0.8-4.7c0.6-1.3,0.9-3,2.4-4.1c1.5-1.1,5.7-4.7,6-7.5c0,0,13.4-0.7,14.9-2.5s0.1-5.8,2-6.2
			c2-0.4,5.5-0.1,4.9,2.3s-3.5,4.7,1.7,12.5c2.1,3.1,0.9,4,0.9,5.4s-0.6,2.6,5.1,6.8c1.5,1,0.6,3.2,1.3,4.1c0.7,0.9,1.2,3.7,2.7,3.7
			c0,0-0.8-1-0.8-1.5s-0.5-2.3,0.4-1.8s1.3,4.5,1.1,6.8s1.5,1.5,1.7,1.5c0.2,0,0.1,1.6,2.8,1s8.4,0.8,8.5-0.4c0,0,1.1-0.3,2.1,0.3
			c0,0-0.6-1.5-2.8-2c-2.1-0.5-6-3.5-6.4-4.4c-0.4-0.9-2-2.6-2-3.5c0-0.9-0.2-2-2-3.1s-5.1-7.7-4.6-10.5c0.5-2.8,1.6-9.1,0.6-13.5
			c-1-4.4-0.3-8-1.3-9c-1-1-0.6-2.5-0.6-2.5s3.6-2.1,6.3-4.7c0.5,1.4,2.1,3.4,2.7,4.6c0.8,1.6,1.9,2.3,1.9,2.3
			c-1.5,1.1-0.9,2.5-0.9,2.5c-0.1,0.7-0.8,1.6-0.8,1.6c1.5-0.3,2.4-2.5,2.4-2.5c-0.1,1,0.3,1.8,0.3,1.8c-0.2,0.9-1,1.6-1,1.6
			c1.2-0.2,1.7-1.5,1.7-1.5c1.3-2.3,0-4.7-1.2-5.6c-1.2-0.9-2.5-4.9-2.5-4.9s0.2-1.1,1-3c0.5-1.1-0.1-1.9-0.6-2.4
			c0.6-4.3,0.2-11.2,1.9-14.1c2-3.5,4.7-7.8,12.1-7.6c4.6,0.2,5.5-2.8,10.9-4.3c3.4-1.3,5.5-2,5.7-4.5
			C170.2,113.7,170,113.4,169.8,113.1z M121.4,126.6c-0.8,0.1-2.3,0.5-3.8,1.1l-0.5,0c-1.1,0-2.4-0.3-3-0.4c-0.7-0.1-1-0.4-1.6-0.4
			c-0.5,0-1,0.4-1,0.4c-0.7-0.1-1.8,0.5-2.2,0.9c-0.4,0.4-1.8,0.5-1.8,0.5c-0.1-0.5-0.4-1.2-0.9-1.4c-0.5-0.1-0.4-0.6-0.4-0.6
			c0.2,0,0.5-0.1,0.8-0.4c0.3-0.3,1.1-0.4,1.6-0.6c0.5-0.2,0.7-0.8,0.8-1.2c0.1-0.4,0.1-0.5,0.3-0.6c0.2,0.2,0.4,0.3,0.8,0.3
			c0.1,0,0.2,0.2,0.3,0.4c0,0.2,0,0.6-0.5,0.7c-0.6,0.2-0.9,0.4-0.9,0.6c0,0.2,0.1,0.4,0.3,0.4l0.2-0.5c0,0,0,0.1,0,0.1
			c0,0,0.1-0.1,0.6-0.2c0.8-0.2,0.9-0.8,0.9-1.3c-0.1-0.4-0.4-0.9-0.9-0.8c-0.1,0-0.2,0-0.3-0.1c0.1-0.2,0.1-0.4,0-0.6
			c-0.2-0.2,0-0.7,0-0.7s0.2-0.2,0.2-0.4c3-0.6,13.1-2.6,17.3-3.4c-0.5,1.5-0.9,3.2-1.1,5C125.1,127.7,123.3,126.3,121.4,126.6z"/>
		<line stroke="#000000" stroke-width="0.4613" stroke-miterlimit="10" x1="109.5" y1="122" x2="131.2" y2="113.8"/>
		<path d="M100.1,125.2c0,0-1.7,1.8-2.3,2.9c0,0-1.7-0.1-1.9-0.7c0,0,0.5-0.4,0-0.8c0,0,0.1-1.2-0.4-0.9c-0.5,0.3-1.1,0.9-0.8,1.7
			c0.4,0.8,0.9,1.2,0.9,1.2l-0.2,0.5c0,0,1.8,0.8,3.3,0.4c1.5-0.4,1.7-2,2.6-2.1C102.2,127.3,100.1,125.2,100.1,125.2z"/>
		<g>
			<path d="M25.1,175.4c0,0-0.2-7.6-0.6-10s-1-8.4-0.4-10.1s1.9-1.2,2.2-0.5s1.6,8,1.5,12.7s-0.7,7.9-0.7,7.9H25.1z"/>
			<path d="M37,175.4c0,0,0.2-5.8,0.5-7.7s0.8-6.5,0.3-7.8c-0.5-1.3-1.5-0.9-1.8-0.4c-0.3,0.5-1.3,6.2-1.3,9.8
				c0,3.6,0.6,6.1,0.6,6.1H37z"/>
			<path d="M27,163.3c0,0,2.9,0.3,2.8-1.2c-0.1-1.5-0.7-4,0.3-4.1c1.1,0,2.1,0.7,1.6,5.3c-0.6,1.8-4.8,0.9-4.8,0.9V163.3z"/>
			<path d="M36.1,169.7c0,0-2.4,0.3-2.2-0.9s0.6-3.2-0.3-3.3c-0.9,0-1.7,0.5-1.3,4.2c0.5,1.5,3.8,0.8,3.8,0.8V169.7z"/>
			<path d="M26,159.7c0,0-2.7,0.1-2.9-1.6c-0.2-1.7-1.5-0.5-0.8,0.5c0.6,1,2.2,1.8,3.7,1.7C27.4,160.3,26,159.7,26,159.7z"/>
		</g>
		<g>
			<path d="M162.2,184.7c0,0,0.3-8.4,0.7-11.2c0.4-2.7,1.1-9.4,0.4-11.2c-0.7-1.8-2.1-1.3-2.5-0.5s-1.8,9-1.7,14.2
				c0.1,5.2,0.8,8.8,0.8,8.8H162.2z"/>
			<path d="M160.2,171.2c0,0-3.3,0.4-3.1-1.3c0.2-1.7,0.8-4.5-0.4-4.5c-1.2-0.1-2.4,0.7-1.8,5.9c0.7,2,5.3,1.1,5.3,1.1V171.2z"/>
			<path d="M161.3,167.2c0,0,3,0.2,3.2-1.8c0.2-1.9,1.6-0.5,0.9,0.5c-0.7,1.1-2.5,2-4.1,1.9C159.6,167.8,161.3,167.2,161.3,167.2z"
				/>
		</g>
		<g>
			<path d="M101.9,191.3c0,0-0.2-4.7-0.4-6.2c-0.2-1.5-0.6-5.2-0.2-6.2c0.4-1,1.1-0.7,1.4-0.3s1,5,0.9,7.8s-0.4,4.8-0.4,4.8H101.9z"
				/>
			<path d="M103,183.8c0,0,1.8,0.2,1.7-0.7s-0.5-2.5,0.2-2.5c0.7,0,1.3,0.4,1,3.3c-0.4,1.1-2.9,0.6-2.9,0.6V183.8z"/>
			<path d="M102.4,181.6c0,0-1.6,0.1-1.8-1c-0.1-1.1-0.9-0.3-0.5,0.3c0.4,0.6,1.4,1.1,2.3,1.1C103.3,181.9,102.4,181.6,102.4,181.6z
				"/>
		</g>
		<g>
			<path d="M126.6,42.8c0,0,0.5,0.1,0.7,0.2s3,0.1,3.2,0c0.2-0.1-1.1-0.6-1.9-0.9c-0.9-0.3-1.5-1.2-1.9-1.4
				c-0.5-0.2-1.8-0.6-1.6-0.3c0.2,0.4,1.3,0.6,1.3,0.9s0,0.5-0.5,0.5c-0.5-0.1-0.9-0.8-1.3-0.8c-0.3,0-2.2-0.7-3.5-3.1
				s-6.9-3.5-8.4-3.5c-1.5,0,1.4,0.4,2.8,1.4c1.3,1,6,4.2,3.3,6.5c0,0-0.5,0.1-0.5,0.2c0,0,0.3,0,0.1,0.2c-0.2,0.2,0.1,0.3,0.4,0
				s0.5-0.2,0.8-0.2s1.4,0,1.7,0.3c0.2,0.4,0.6,0.6-0.2,1.1c-0.7,0.5-0.9,0.6-0.9,0.6s0.3,0,0.2,0.1c-0.1,0.1,0.1,0.2,0.3,0
				s0.9-0.4,2-0.4c1.1,0.1,7.3,1,11.3,4.7c0.6,0.5,0.5,0.1,0-0.7c-0.5-0.8-3.5-3.3-4.4-3.8s-1.5-0.8-1.9-0.9
				C127.4,43.6,126.6,42.8,126.6,42.8z"/>
			<path d="M120.7,37.4c0,0,0.1-0.4-0.2-0.7s0.3,0.7-0.3,0.3c-0.6-0.4,0,0.5,0,0.5H120.7z"/>
			<path d="M129.3,44.4c0,0,1.1-0.2,0.4,0.2c0,0,0.8-0.1-0.1,0.2S129.3,44.4,129.3,44.4z"/>
		</g>
		<g>
			<path d="M156.8,50.1c0,0,0.3,0,0.4,0.1c0.1,0.1,1.6,0,1.7,0c0.1,0-0.6-0.3-1.1-0.5c-0.5-0.1-0.8-0.6-1.1-0.7
				c-0.3-0.1-1-0.3-0.8-0.1s0.7,0.3,0.7,0.5s0,0.3-0.3,0.3c-0.3,0-0.5-0.4-0.7-0.4c-0.2,0-1.2-0.4-1.9-1.7c-0.7-1.3-3.7-1.9-4.6-1.9
				c-0.8,0,0.8,0.2,1.5,0.8s3.2,2.3,1.8,3.5c0,0-0.3,0-0.3,0.1c0,0,0.1,0,0,0.1c-0.1,0.1,0,0.2,0.2,0c0.2-0.2,0.3-0.1,0.4-0.1
				s0.8,0,0.9,0.2c0.1,0.2,0.3,0.3-0.1,0.6s-0.5,0.3-0.5,0.3s0.2,0,0.1,0.1c0,0.1,0.1,0.1,0.2,0c0.1-0.1,0.5-0.2,1.1-0.2
				c0.6,0,4,0.5,6.1,2.5c0.3,0.3,0.3,0.1,0-0.4c-0.3-0.4-1.9-1.8-2.4-2.1c-0.5-0.2-0.8-0.4-1-0.5S156.8,50.1,156.8,50.1z"/>
			<path d="M153.6,47.2c0,0,0.1-0.2-0.1-0.4c-0.2-0.2,0.2,0.4-0.1,0.1c-0.3-0.2,0,0.3,0,0.3H153.6z"/>
			<path d="M158.2,51c0,0,0.6-0.1,0.2,0.1c0,0,0.5,0,0,0.1C157.9,51.4,158.2,51,158.2,51z"/>
		</g>
		<polygon points="36,170.9 24.9,175.1 16.6,173 8.3,173 -3.5,175.1 -10.5,175.1 -25.6,175.1 -37.3,178.5 -49.1,174.7 -66.4,178.5 
			-78.2,174.7 -85.8,178.5 -107.3,186.3 -107.3,208.3 288.6,208.3 284.4,186.3 273.4,183.4 266.4,186.3 251.2,181.3 238.1,182.7 
			231.1,177.2 222.1,178.5 213.1,177.9 196.5,175.8 189.6,178.5 175.8,177.9 159.2,183.4 141.2,186.3 133.1,194.2 119.2,193.1 
			105.5,189.6 100,189.6 81,193.1 67.8,186.3 58.8,186.3 45.7,181.3 40.9,175.1 		"/>
	</g>
</g>
<g>
	<path d="M100,4c52.9,0,96,43.1,96,96s-43.1,96-96,96S4,152.9,4,100S47.1,4,100,4 M100,0C44.8,0,0,44.8,0,100s44.8,100,100,100
		s100-44.8,100-100S155.2,0,100,0L100,0z"/>
</g>
</svg>
